<svg width="44" height="44" viewBox="0 0 44 44" fill="none" xmlns="http://www.w3.org/2000/svg">
<path d="M17.0305 17.9274C17.0305 16.5084 15.1432 16.1323 14.6425 17.46C13.4313 20.6716 12.5488 23.5447 12.5488 25.098C12.5488 30.0483 16.5619 34.0614 21.5122 34.0614C26.4626 34.0614 30.4757 30.0483 30.4757 25.098C30.4757 23.4291 29.457 20.237 28.1065 16.7383C26.3571 12.206 25.4824 9.93989 24.4026 9.81783C24.0571 9.77877 23.6802 9.84899 23.372 10.0098C22.4086 10.5125 22.4086 12.9841 22.4086 17.9274C22.4086 19.4125 21.2047 20.6164 19.7196 20.6164C18.2345 20.6164 17.0305 19.4125 17.0305 17.9274Z" fill="#222222"/>
</svg>
