<svg width="70" height="70" viewBox="0 0 70 70" fill="none" xmlns="http://www.w3.org/2000/svg">
<path d="M27.7084 29.1675C27.7084 26.8588 24.6378 26.2469 23.8232 28.407C21.8526 33.6323 20.4167 38.3067 20.4167 40.8339C20.4167 48.8881 26.9459 55.4173 35.0001 55.4173C43.0542 55.4173 49.5834 48.8881 49.5834 40.8339C49.5834 38.1188 47.9261 32.9252 45.7289 27.2328C42.8826 19.8589 41.4594 16.172 39.7027 15.9734C39.1406 15.9098 38.5273 16.0241 38.0258 16.2858C36.4584 17.1037 36.4584 21.1249 36.4584 29.1675C36.4584 31.5837 34.4997 33.5425 32.0834 33.5425C29.6672 33.5425 27.7084 31.5837 27.7084 29.1675Z" stroke="#33363F" stroke-width="2"/>
</svg>
