<svg width="612" height="492" viewBox="0 0 612 492" fill="none" xmlns="http://www.w3.org/2000/svg">
<path d="M14.6921 332.683L15.0436 331.913C16.1243 332.542 17.4521 332.797 18.9799 332.604C21.5197 332.283 22.8903 330.8 22.7274 329.008C22.5701 327.275 21.6697 326.422 18.8862 326.048C15.3306 325.571 14.4031 324.419 14.2493 322.726C14.0648 320.694 15.7474 318.89 18.5054 318.541C20.0928 318.341 21.3177 318.569 21.9077 318.877L21.6138 319.619C21.1916 319.391 20.0731 319.008 18.5255 319.204C15.6285 319.57 14.9489 321.368 15.0538 322.524C15.1895 324.017 16.1674 324.841 18.8301 325.209C21.6749 325.595 23.3076 326.336 23.5301 328.785C23.6966 330.618 22.5174 332.882 18.8863 333.341C17.4775 333.519 15.7493 333.275 14.6921 332.683ZM32.0996 331.369L30.8821 317.964L25.7033 318.619L25.64 317.922L36.7912 316.512L36.8546 317.209L31.6956 317.861L32.9131 331.266L32.0996 331.369ZM39.7473 316.139L40.5608 316.036L41.8416 330.138L41.0281 330.24L39.7473 316.139ZM56.5248 321.351L57.0838 327.506C56.4165 327.892 54.8581 328.633 52.6358 328.914C50.6119 329.17 48.7412 328.903 47.0416 327.647C45.7065 326.647 44.7373 324.816 44.5401 322.644C44.238 319.318 46.3096 315.168 51.8257 314.471C53.4925 314.26 54.8996 314.505 55.4606 314.716L55.2227 315.411C54.3748 315.136 53.2978 314.99 51.8494 315.173C47.246 315.755 45.0299 318.976 45.3573 322.581C45.7028 326.386 48.467 328.756 52.7727 328.212C54.5188 327.991 55.6047 327.572 56.2287 327.151L55.7728 322.131L52.1219 322.593L52.0604 321.916L56.5248 321.351Z" fill="#F5F5F5"/>
<path d="M254.384 436.34L253.714 435.82C254.571 434.913 255.12 433.68 255.278 432.148C255.54 429.602 254.407 427.925 252.625 427.669C250.903 427.422 249.868 428.102 248.875 430.725C247.605 434.076 246.274 434.713 244.591 434.472C242.572 434.182 241.197 432.128 241.482 429.362C241.646 427.771 242.145 426.631 242.578 426.128L243.234 426.585C242.916 426.943 242.291 427.944 242.131 429.496C241.831 432.4 243.428 433.477 244.576 433.642C246.061 433.855 247.084 433.093 248.045 430.586C249.065 427.906 250.155 426.488 252.59 426.837C254.412 427.098 256.349 428.769 255.974 432.409C255.828 433.822 255.199 435.448 254.384 436.34ZM257.045 419.091L243.721 417.181L243.186 422.373L242.493 422.274L243.645 411.093L244.338 411.192L243.805 416.365L257.129 418.276L257.045 419.091ZM243.951 408.129L244.035 407.314L258.051 409.324L257.967 410.139L243.951 408.129ZM252.822 393.001L258.94 393.878C259.165 394.617 259.533 396.305 259.304 398.533C259.095 400.563 258.411 402.322 256.804 403.686C255.529 404.755 253.526 405.276 251.368 404.966C248.062 404.492 244.491 401.517 245.061 395.986C245.233 394.315 245.791 393.002 246.123 392.505L246.746 392.897C246.285 393.658 245.9 394.673 245.75 396.125C245.274 400.741 247.909 403.642 251.492 404.156C255.273 404.698 258.206 402.555 258.651 398.238C258.831 396.487 258.669 395.333 258.4 394.628L253.411 393.913L253.034 397.574L252.361 397.477L252.822 393.001Z" fill="black" fill-opacity="0.8"/>
<path d="M254.384 436.34L253.714 435.82C254.571 434.913 255.12 433.68 255.278 432.148C255.54 429.602 254.407 427.925 252.625 427.669C250.903 427.422 249.868 428.102 248.875 430.725C247.605 434.076 246.274 434.713 244.591 434.472C242.572 434.182 241.197 432.128 241.482 429.362C241.646 427.771 242.145 426.631 242.578 426.128L243.234 426.585C242.916 426.943 242.291 427.944 242.131 429.496C241.831 432.4 243.428 433.477 244.576 433.642C246.061 433.855 247.084 433.093 248.045 430.586C249.065 427.906 250.155 426.488 252.59 426.837C254.412 427.098 256.349 428.769 255.974 432.409C255.828 433.822 255.199 435.448 254.384 436.34ZM257.045 419.091L243.721 417.181L243.186 422.373L242.493 422.274L243.645 411.093L244.338 411.192L243.805 416.365L257.129 418.276L257.045 419.091ZM243.951 408.129L244.035 407.314L258.051 409.324L257.967 410.139L243.951 408.129ZM252.822 393.001L258.94 393.878C259.165 394.617 259.533 396.305 259.304 398.533C259.095 400.563 258.411 402.322 256.804 403.686C255.529 404.755 253.526 405.276 251.368 404.966C248.062 404.492 244.491 401.517 245.061 395.986C245.233 394.315 245.791 393.002 246.123 392.505L246.746 392.897C246.285 393.658 245.9 394.673 245.75 396.125C245.274 400.741 247.909 403.642 251.492 404.156C255.273 404.698 258.206 402.555 258.651 398.238C258.831 396.487 258.669 395.333 258.4 394.628L253.411 393.913L253.034 397.574L252.361 397.477L252.822 393.001Z" fill="black" fill-opacity="0.8"/>
<path d="M559.276 221.353L559.964 221.84C559.138 222.785 558.631 224.042 558.525 225.579C558.349 228.133 559.541 229.753 561.332 229.924C563.065 230.09 564.076 229.364 564.981 226.699C566.137 223.294 567.447 222.596 569.14 222.758C571.17 222.953 572.617 224.939 572.426 227.712C572.317 229.308 571.856 230.469 571.439 230.992L570.767 230.566C571.073 230.194 571.665 229.166 571.772 227.609C571.972 224.696 570.338 223.696 569.183 223.586C567.69 223.443 566.692 224.251 565.816 226.799C564.887 229.521 563.844 230.988 561.396 230.754C559.564 230.579 557.568 229.002 557.819 225.351C557.917 223.934 558.491 222.282 559.276 221.353ZM557.203 238.694L570.601 239.975L570.959 234.768L571.656 234.834L570.885 246.048L570.188 245.981L570.545 240.793L557.146 239.512L557.203 238.694ZM570.681 249.02L570.625 249.838L556.529 248.49L556.585 247.672L570.681 249.02ZM562.32 264.536L556.168 263.948C555.917 263.221 555.491 261.553 555.644 259.318C555.784 257.283 556.408 255.495 557.97 254.058C559.21 252.931 561.196 252.318 563.366 252.526C566.691 252.844 570.366 255.645 569.984 261.192C569.869 262.868 569.357 264.205 569.041 264.717L568.404 264.355C568.839 263.573 569.19 262.542 569.29 261.086C569.609 256.457 566.873 253.685 563.27 253.34C559.467 252.976 556.605 255.253 556.308 259.583C556.187 261.338 556.389 262.483 556.682 263.173L561.699 263.653L561.951 259.982L562.628 260.047L562.32 264.536Z" fill="black" fill-opacity="0.8"/>
<path d="M262.515 150.457L262.264 149.603C263.4 149.329 264.466 148.585 265.383 147.348C266.907 145.291 266.894 143.152 265.641 141.86C264.429 140.611 263.273 140.581 261.141 142.266C258.417 144.418 257.051 144.173 255.868 142.953C254.447 141.489 254.442 138.876 256.097 136.642C257.049 135.356 258.028 134.665 258.626 134.488L258.899 135.279C258.466 135.4 257.461 135.894 256.533 137.148C254.795 139.494 255.478 141.389 256.286 142.222C257.331 143.299 258.521 143.25 260.568 141.647C262.749 139.928 264.333 139.35 266.045 141.115C267.327 142.436 267.967 145.052 265.789 147.993C264.944 149.134 263.612 150.17 262.515 150.457ZM273.524 137.054L264.151 127.393L261.044 131.587L260.557 131.085L267.247 122.053L267.735 122.555L264.64 126.734L274.012 136.395L273.524 137.054ZM269.021 119.658L269.509 118.999L279.368 129.163L278.88 129.822L269.021 119.658ZM283.76 111.828L288.063 116.264C287.856 117.041 287.267 118.731 285.934 120.531C284.72 122.17 283.277 123.29 281.32 123.511C279.774 123.675 277.947 122.926 276.429 121.361C274.103 118.964 272.868 114.232 276.177 109.765C277.177 108.415 278.291 107.607 278.807 107.374L279.088 108.089C278.336 108.475 277.51 109.126 276.641 110.299C273.879 114.028 274.424 118.132 276.945 120.731C279.605 123.473 282.996 123.369 285.58 119.882C286.627 118.468 287.099 117.367 287.255 116.592L283.746 112.975L281.555 115.932L281.082 115.444L283.76 111.828Z" fill="#F5F5F5"/>
<path d="M423.578 223.293L424.266 223.781C423.44 224.726 422.932 225.983 422.827 227.519C422.651 230.073 423.842 231.693 425.634 231.865C427.366 232.031 428.378 231.304 429.283 228.639C430.439 225.235 431.749 224.537 433.441 224.699C435.472 224.893 436.919 226.879 436.728 229.653C436.618 231.249 436.158 232.41 435.741 232.932L435.069 232.506C435.375 232.134 435.967 231.106 436.074 229.55C436.274 226.637 434.639 225.637 433.485 225.526C431.992 225.383 430.994 226.192 430.118 228.739C429.189 231.462 428.146 232.929 425.697 232.694C423.866 232.519 421.87 230.942 422.121 227.291C422.218 225.874 422.793 224.222 423.578 223.293ZM421.504 240.634L434.903 241.916L435.261 236.708L435.958 236.775L435.187 247.988L434.49 247.922L434.847 242.734L421.448 241.452L421.504 240.634ZM434.983 250.961L434.926 251.779L420.831 250.43L420.887 249.612L434.983 250.961ZM426.622 266.477L420.47 265.888C420.219 265.161 419.793 263.494 419.946 261.259C420.086 259.224 420.71 257.436 422.272 255.998C423.511 254.872 425.498 254.258 427.668 254.466C430.992 254.784 434.668 257.586 434.286 263.133C434.171 264.809 433.658 266.146 433.343 266.658L432.706 266.296C433.141 265.514 433.492 264.483 433.592 263.026C433.91 258.397 431.175 255.625 427.572 255.28C423.769 254.916 420.907 257.193 420.609 261.523C420.489 263.279 420.691 264.423 420.984 265.114L426.001 265.594L426.253 261.922L426.93 261.987L426.622 266.477Z" fill="black" fill-opacity="0.8"/>
<path d="M372.56 244.142L372.309 243.288C373.445 243.014 374.511 242.27 375.428 241.033C376.952 238.976 376.939 236.837 375.686 235.545C374.474 234.296 373.318 234.266 371.186 235.951C368.462 238.103 367.097 237.858 365.913 236.638C364.492 235.174 364.487 232.561 366.142 230.327C367.094 229.041 368.073 228.35 368.671 228.173L368.944 228.964C368.511 229.085 367.506 229.579 366.578 230.833C364.84 233.179 365.524 235.074 366.331 235.907C367.376 236.984 368.566 236.935 370.613 235.332C372.795 233.613 374.378 233.035 376.091 234.8C377.372 236.121 378.013 238.737 375.834 241.678C374.989 242.819 373.657 243.855 372.56 244.142ZM383.569 230.739L374.197 221.078L371.09 225.272L370.602 224.77L377.292 215.738L377.78 216.24L374.685 220.419L384.057 230.08L383.569 230.739ZM379.066 213.343L379.554 212.684L389.413 222.848L388.925 223.507L379.066 213.343ZM393.805 205.513L398.109 209.949C397.901 210.726 397.313 212.416 395.979 214.216C394.765 215.855 393.322 216.975 391.365 217.196C389.819 217.36 387.992 216.611 386.474 215.046C384.148 212.649 382.913 207.917 386.222 203.45C387.222 202.1 388.336 201.292 388.853 201.059L389.134 201.774C388.381 202.16 387.555 202.811 386.686 203.984C383.924 207.713 384.469 211.817 386.99 214.416C389.65 217.158 393.042 217.054 395.625 213.567C396.672 212.153 397.144 211.052 397.3 210.277L393.791 206.66L391.6 209.617L391.127 209.129L393.805 205.513Z" fill="#F5F5F5"/>
<path d="M153.1 118.866L153.788 119.354C152.962 120.299 152.454 121.556 152.349 123.093C152.173 125.647 153.364 127.267 155.156 127.438C156.888 127.604 157.9 126.877 158.805 124.212C159.961 120.808 161.271 120.11 162.963 120.272C164.994 120.466 166.441 122.452 166.25 125.226C166.14 126.822 165.68 127.983 165.263 128.506L164.591 128.08C164.897 127.707 165.489 126.679 165.596 125.123C165.796 122.21 164.161 121.21 163.007 121.1C161.514 120.957 160.516 121.765 159.64 124.312C158.711 127.035 157.668 128.502 155.219 128.268C153.388 128.093 151.392 126.516 151.643 122.864C151.74 121.448 152.315 119.796 153.1 118.866ZM151.026 136.207L164.425 137.489L164.783 132.282L165.48 132.348L164.709 143.562L164.012 143.495L164.369 138.307L150.97 137.025L151.026 136.207ZM164.505 146.534L164.448 147.352L150.353 146.004L150.409 145.186L164.505 146.534ZM156.143 162.05L149.992 161.461C149.741 160.734 149.314 159.067 149.468 156.832C149.608 154.797 150.232 153.009 151.794 151.572C153.033 150.445 155.02 149.832 157.19 150.039C160.514 150.357 164.19 153.159 163.808 158.706C163.693 160.382 163.18 161.719 162.864 162.231L162.228 161.869C162.663 161.087 163.014 160.056 163.114 158.6C163.432 153.971 160.697 151.198 157.094 150.854C153.291 150.49 150.429 152.767 150.131 157.096C150.011 158.852 150.213 159.996 150.506 160.687L155.523 161.167L155.775 157.496L156.452 157.561L156.143 162.05Z" fill="#F5F5F5"/>
<path d="M185.511 321.145L185.276 321.976C184.133 321.552 182.801 321.546 181.337 322.024C178.903 322.817 177.773 324.547 178.183 326.3C178.58 327.994 179.579 328.675 182.348 328.527C185.885 328.338 186.952 329.311 187.34 330.966C187.805 332.952 186.416 335.061 183.773 335.922C182.252 336.418 181.024 336.42 180.405 336.223L180.588 335.43C181.032 335.579 182.177 335.751 183.66 335.267C186.437 334.362 186.848 332.447 186.583 331.317C186.241 329.857 185.171 329.221 182.52 329.351C179.689 329.498 177.992 329.066 177.431 326.671C177.011 324.879 177.845 322.407 181.325 321.273C182.675 320.833 184.396 320.754 185.511 321.145ZM168.704 325.701L171.773 338.806L176.736 337.188L176.896 337.87L166.209 341.353L166.05 340.671L170.994 339.06L167.924 325.955L168.704 325.701ZM163.376 342.276L162.597 342.53L159.368 328.743L160.148 328.489L163.376 342.276ZM146.269 340.223L144.86 334.205C145.457 333.696 146.874 332.669 149.004 331.975C150.943 331.342 152.807 331.259 154.642 332.191C156.085 332.936 157.288 334.577 157.785 336.7C158.547 339.952 157.107 344.466 151.821 346.189C150.223 346.71 148.816 346.728 148.238 346.623L148.373 345.887C149.239 346.003 150.311 345.947 151.699 345.495C156.111 344.057 157.822 340.44 156.996 336.915C156.125 333.196 153.095 331.354 148.968 332.699C147.295 333.244 146.294 333.864 145.744 334.399L146.893 339.306L150.392 338.166L150.547 338.828L146.269 340.223Z" fill="black" fill-opacity="0.8"/>
<path d="M184.043 319.989L183.69 321.236C181.975 320.6 179.978 320.591 177.781 321.306C174.13 322.496 172.436 325.092 173.051 327.721C173.647 330.262 175.144 331.283 179.298 331.061C184.605 330.778 186.205 332.237 186.786 334.72C187.484 337.699 185.4 340.862 181.436 342.154C179.154 342.898 177.312 342.901 176.384 342.606L176.658 341.416C177.324 341.639 179.042 341.897 181.267 341.172C185.431 339.814 186.048 336.941 185.651 335.247C185.138 333.056 183.533 332.102 179.557 332.297C175.311 332.518 172.764 331.87 171.923 328.277C171.294 325.59 172.544 321.882 177.763 320.18C179.788 319.52 182.37 319.402 184.043 319.989ZM158.833 326.822L163.436 346.48L170.881 344.054L171.12 345.076L155.09 350.3L154.851 349.278L162.267 346.861L157.663 327.203L158.833 326.822ZM150.841 351.685L149.671 352.067L144.828 331.386L145.998 331.005L150.841 351.685ZM125.179 348.605L123.066 339.579C123.961 338.816 126.087 337.274 129.282 336.233C132.191 335.285 134.986 335.16 137.739 336.558C139.904 337.675 141.709 340.137 142.454 343.321C143.597 348.199 141.437 354.97 133.508 357.555C131.112 358.335 129 358.364 128.134 358.206L128.336 357.102C129.635 357.276 131.243 357.192 133.325 356.514C139.943 354.357 142.509 348.93 141.271 343.643C139.965 338.064 135.419 335.302 129.229 337.319C126.719 338.137 125.218 339.066 124.393 339.87L126.116 347.231L131.365 345.52L131.597 346.513L125.179 348.605Z" fill="black" fill-opacity="0.8"/>
<path d="M280.267 237.787L281.368 238.363C280.284 239.948 279.724 241.928 279.806 244.237C279.942 248.074 281.969 250.227 284.666 250.093C287.273 249.965 288.667 248.664 289.6 244.504C290.792 239.189 292.636 237.866 295.183 237.741C298.24 237.59 300.705 240.231 300.853 244.398C300.938 246.797 300.432 248.624 299.893 249.491L298.825 249.004C299.223 248.383 299.945 246.726 299.862 244.387C299.706 240.01 297.115 238.877 295.377 238.962C293.13 239.073 291.769 240.492 290.86 244.471C289.9 248.724 288.575 251.132 284.889 251.314C282.133 251.45 278.913 249.537 278.718 244.05C278.643 241.921 279.242 239.339 280.267 237.787ZM279.878 264.034L300.043 263.038L299.766 255.213L300.814 255.161L301.412 272.01L300.364 272.062L300.087 264.267L279.922 265.263L279.878 264.034ZM301.571 276.477L301.615 277.706L280.4 278.754L280.357 277.525L301.571 276.477ZM291.529 301.371L282.27 301.829C281.783 300.801 280.888 298.413 280.769 295.055C280.66 291.997 281.312 289.202 283.415 286.725C285.087 284.781 287.951 283.438 291.217 283.276C296.221 283.029 302.133 286.401 302.429 294.736C302.519 297.254 301.963 299.354 301.572 300.184L300.567 299.783C301.093 298.526 301.456 296.916 301.378 294.728C301.131 287.772 296.624 284.241 291.2 284.509C285.477 284.791 281.567 288.799 281.798 295.305C281.892 297.943 282.371 299.601 282.916 300.565L290.466 300.192L290.271 294.676L291.289 294.625L291.529 301.371Z" fill="black" fill-opacity="0.8"/>
<path d="M495.417 333.409L494.887 332.188C496.54 331.573 498.003 330.276 499.153 328.272C501.065 324.942 500.662 321.774 498.553 320.088C496.514 318.459 494.777 318.627 491.886 321.517C488.194 325.208 486.105 325.095 484.113 323.503C481.722 321.593 481.245 317.72 483.322 314.103C484.517 312.022 485.858 310.817 486.722 310.444L487.273 311.568C486.646 311.826 485.23 312.744 484.065 314.773C481.884 318.572 483.249 321.256 484.608 322.343C486.366 323.747 488.14 323.457 490.917 320.704C493.875 317.755 496.142 316.606 499.025 318.909C501.181 320.632 502.611 324.394 499.877 329.155C498.817 331.002 497.008 332.782 495.417 333.409ZM509.494 311.513L493.721 298.909L489.822 305.7L489.002 305.044L497.398 290.423L498.218 291.079L494.334 297.843L510.106 310.447L509.494 311.513ZM499.623 286.547L500.236 285.481L516.828 298.74L516.216 299.807L499.623 286.547ZM520.289 272.23L527.531 278.017C527.36 279.208 526.783 281.821 525.11 284.735C523.586 287.388 521.626 289.314 518.735 290.002C516.449 290.529 513.578 289.753 511.024 287.711C507.11 284.584 504.409 277.795 508.562 270.563C509.817 268.377 511.34 266.976 512.071 266.535L512.621 267.544C511.563 268.254 510.443 269.371 509.352 271.27C505.887 277.306 507.441 283.292 511.683 286.682C516.159 290.259 521.22 289.483 524.462 283.838C525.777 281.548 526.285 279.829 526.38 278.652L520.474 273.933L517.725 278.72L516.928 278.083L520.289 272.23Z" fill="black" fill-opacity="0.8"/>
<path d="M309.299 275.849L309.57 274.571C311.309 275.074 313.29 274.926 315.421 274.035C318.964 272.555 320.48 269.82 319.704 267.234C318.954 264.734 317.405 263.829 313.302 264.379C308.061 265.081 306.382 263.744 305.649 261.302C304.77 258.371 306.635 255.038 310.483 253.43C312.698 252.505 314.523 252.358 315.461 252.58L315.265 253.794C314.591 253.623 312.872 253.5 310.712 254.402C306.671 256.09 306.241 259.018 306.741 260.684C307.388 262.839 309.039 263.67 312.967 263.161C317.162 262.605 319.726 263.054 320.787 266.588C321.581 269.231 320.576 273.046 315.51 275.162C313.545 275.983 310.993 276.305 309.299 275.849ZM333.853 267.016L328.049 247.678L320.824 250.696L320.522 249.69L336.08 243.192L336.381 244.198L329.184 247.204L334.988 266.542L333.853 267.016ZM340.204 241.469L341.339 240.995L347.444 261.339L346.309 261.813L340.204 241.469ZM365.831 242.536L368.496 251.414C367.656 252.25 365.647 253.962 362.546 255.257C359.723 256.437 356.96 256.782 354.144 255.598C351.927 254.648 349.984 252.324 349.044 249.192C347.603 244.393 349.316 237.437 357.012 234.223C359.337 233.251 361.428 233.057 362.297 233.147L362.166 234.269C360.867 234.197 359.279 234.407 357.258 235.251C350.836 237.934 348.635 243.574 350.196 248.775C351.843 254.263 356.523 256.674 362.53 254.165C364.966 253.147 366.395 252.098 367.162 251.228L364.989 243.987L359.896 246.114L359.602 245.137L365.831 242.536Z" fill="black" fill-opacity="0.8"/>
<path d="M509.869 384.182L509.646 385.474C507.896 385.047 505.93 385.282 503.841 386.267C500.368 387.905 498.958 390.712 499.825 393.269C500.663 395.741 502.237 396.58 506.301 395.849C511.493 394.917 513.212 396.182 514.03 398.597C515.012 401.496 513.277 404.917 509.505 406.696C507.334 407.72 505.523 407.948 504.581 407.766L504.732 406.542C505.41 406.683 507.125 406.731 509.242 405.733C513.203 403.865 513.524 400.912 512.966 399.264C512.244 397.133 510.57 396.374 506.679 397.056C502.524 397.796 499.955 397.459 498.77 393.964C497.884 391.35 498.746 387.484 503.711 385.142C505.638 384.233 508.165 383.799 509.869 384.182ZM485.75 394.107L492.23 413.229L499.312 409.889L499.649 410.883L484.399 418.075L484.062 417.081L491.117 413.754L484.637 394.632L485.75 394.107ZM480.357 419.982L479.245 420.506L472.428 400.39L473.54 399.866L480.357 419.982ZM454.81 420.035L451.834 411.256C452.64 410.382 454.578 408.578 457.617 407.145C460.384 405.839 463.121 405.372 465.968 406.436C468.208 407.29 470.228 409.534 471.277 412.631C472.885 417.376 471.433 424.421 463.89 427.979C461.611 429.054 459.537 429.34 458.669 429.288L458.758 428.158C460.054 428.173 461.627 427.893 463.607 426.959C469.902 423.99 471.888 418.242 470.146 413.099C468.306 407.672 463.561 405.462 457.673 408.239C455.285 409.365 453.9 410.479 453.168 411.385L455.595 418.545L460.587 416.19L460.915 417.156L454.81 420.035Z" fill="black" fill-opacity="0.8"/>
<path d="M384.62 54.2706L385.456 53.4029C386.67 54.9686 388.396 56.1608 390.602 56.8447C394.27 57.9814 396.843 56.7441 397.43 54.1087C397.997 51.5611 397.135 49.7914 393.444 47.5205C388.73 44.6194 387.966 42.4104 388.52 39.9214C389.185 36.9346 392.337 35.4383 396.32 36.6728C398.612 37.3833 400.207 38.4725 400.886 39.2775L400.142 40.1426C399.66 39.555 398.282 38.3141 396.047 37.6213C391.863 36.3247 390.106 38.4407 389.727 40.1391C389.238 42.3353 390.221 44.1112 393.747 46.2996C397.517 48.6264 399.446 50.6954 398.644 54.2971C398.044 56.9911 395.382 59.453 390.138 57.8278C388.104 57.1972 385.818 55.7688 384.62 54.2706ZM409.357 63.3148L413.746 43.6076L406.267 41.2896L406.495 40.2647L422.6 45.2559L422.371 46.2807L414.921 43.9717L410.532 63.6789L409.357 63.3148ZM426.868 46.5789L428.043 46.943L423.426 67.6752L422.251 67.311L426.868 46.5789ZM447.773 64.4525L445.758 73.5008C444.658 73.6292 442.16 73.7005 438.951 72.7058C436.028 71.7999 433.555 70.2508 431.767 67.4116C430.369 65.1626 429.855 61.9669 430.566 58.7751C431.655 53.8849 436.41 49.3168 444.376 51.7858C446.783 52.5318 448.623 53.7595 449.305 54.4092L448.66 55.2424C447.609 54.3219 446.182 53.4412 444.09 52.7929C437.442 50.7325 432.908 53.8976 431.728 59.1978C430.482 64.7908 433.241 69.8718 439.459 71.799C441.981 72.5805 443.677 72.6679 444.733 72.4632L446.377 65.084L441.104 63.4498L441.326 62.4542L447.773 64.4525Z" fill="#F5F5F5"/>
<path d="M374.17 386.123L373.947 387.414C372.197 386.987 370.232 387.222 368.142 388.208C364.669 389.846 363.26 392.652 364.127 395.209C364.964 397.681 366.539 398.52 370.603 397.79C375.794 396.858 377.513 398.123 378.332 400.538C379.314 403.436 377.578 406.858 373.807 408.637C371.636 409.661 369.825 409.889 368.882 409.707L369.034 408.482C369.711 408.624 371.427 408.672 373.543 407.674C377.505 405.805 377.826 402.853 377.267 401.205C376.545 399.074 374.872 398.314 370.98 398.996C366.825 399.737 364.256 399.399 363.072 395.905C362.186 393.291 363.047 389.424 368.013 387.082C369.939 386.174 372.467 385.74 374.17 386.123ZM350.051 396.048L356.531 415.17L363.613 411.83L363.95 412.824L348.701 420.016L348.364 419.022L355.419 415.694L348.939 396.573L350.051 396.048ZM344.659 421.922L343.546 422.447L336.729 402.331L337.842 401.806L344.659 421.922ZM319.111 421.976L316.136 413.196C316.941 412.322 318.879 410.519 321.918 409.085C324.686 407.78 327.423 407.313 330.269 408.376C332.51 409.231 334.529 411.475 335.579 414.572C337.187 419.317 335.735 426.362 328.192 429.919C325.912 430.994 323.838 431.281 322.971 431.228L323.06 430.099C324.355 430.114 325.928 429.833 327.909 428.899C334.204 425.93 336.19 420.183 334.447 415.04C332.608 409.613 327.862 407.402 321.974 410.179C319.586 411.306 318.202 412.42 317.47 413.325L319.896 420.485L324.889 418.131L325.216 419.097L319.111 421.976Z" fill="black" fill-opacity="0.8"/>
<path d="M494.665 147.956L495.501 147.088C496.715 148.654 498.441 149.846 500.647 150.53C504.315 151.667 506.888 150.43 507.475 147.794C508.042 145.246 507.181 143.477 503.49 141.206C498.775 138.305 498.011 136.096 498.565 133.607C499.23 130.62 502.382 129.124 506.365 130.358C508.657 131.069 510.253 132.158 510.931 132.963L510.187 133.828C509.705 133.24 508.327 131.999 506.092 131.307C501.909 130.01 500.151 132.126 499.773 133.824C499.283 136.021 500.266 137.797 503.792 139.985C507.563 142.312 509.491 144.381 508.689 147.982C508.089 150.676 505.427 153.138 500.183 151.513C498.149 150.883 495.863 149.454 494.665 147.956ZM519.402 157L523.791 137.293L516.312 134.975L516.54 133.95L532.645 138.941L532.416 139.966L524.966 137.657L520.577 157.364L519.402 157ZM536.914 140.264L538.089 140.628L533.471 161.361L532.297 160.996L536.914 140.264ZM557.819 158.138L555.803 167.186C554.703 167.315 552.206 167.386 548.996 166.391C546.073 165.485 543.6 163.936 541.812 161.097C540.414 158.848 539.9 155.652 540.611 152.46C541.7 147.57 546.455 143.002 554.421 145.471C556.828 146.217 558.668 147.445 559.351 148.095L558.706 148.928C557.655 148.007 556.227 147.127 554.135 146.478C547.487 144.418 542.953 147.583 541.773 152.883C540.527 158.476 543.286 163.557 549.504 165.484C552.026 166.266 553.722 166.353 554.779 166.149L556.422 158.769L551.149 157.135L551.371 156.14L557.819 158.138Z" fill="#F5F5F5"/>
<path d="M103.692 281.696L103.469 282.987C101.719 282.56 99.7533 282.795 97.664 283.781C94.1909 285.419 92.7817 288.225 93.6483 290.783C94.486 293.254 96.0607 294.094 100.125 293.363C105.316 292.431 107.035 293.696 107.853 296.111C108.836 299.009 107.1 302.431 103.328 304.21C101.158 305.234 99.3467 305.462 98.404 305.28L98.5554 304.055C99.2329 304.197 100.948 304.245 103.065 303.247C107.026 301.378 107.348 298.426 106.789 296.778C106.067 294.647 104.393 293.887 100.502 294.569C96.3469 295.31 93.7779 294.972 92.5936 291.478C91.7077 288.864 92.5689 284.997 97.5344 282.656C99.4609 281.747 101.989 281.313 103.692 281.696ZM79.5728 291.621L86.053 310.743L93.1349 307.403L93.4719 308.397L78.2227 315.589L77.8857 314.595L84.9405 311.267L78.4603 292.146L79.5728 291.621ZM74.1804 317.496L73.068 318.02L66.2508 297.904L67.3633 297.379L74.1804 317.496ZM48.633 317.549L45.6577 308.77C46.463 307.895 48.4008 306.092 51.4398 304.659C54.2075 303.353 56.9445 302.886 59.7909 303.949C62.0317 304.804 64.051 307.048 65.1006 310.145C66.7086 314.89 65.2566 321.935 57.7134 325.492C55.4342 326.567 53.3598 326.854 52.4924 326.801L52.5816 325.672C53.877 325.687 55.4499 325.407 57.4307 324.472C63.7257 321.504 65.7116 315.756 63.9688 310.613C62.1297 305.186 57.3839 302.976 51.4959 305.753C49.1081 306.879 47.7234 307.993 46.9917 308.898L49.4181 316.058L54.4107 313.704L54.7381 314.67L48.633 317.549Z" fill="#F5F5F5"/>
<path d="M-31.1613 360.394L-30.1954 359.723C-29.3285 361.553 -27.9003 363.129 -25.915 364.31C-22.6147 366.273 -19.9146 365.631 -18.8534 363.148C-17.8275 360.748 -18.3187 358.795 -21.4265 355.701C-25.3961 351.748 -25.7104 349.381 -24.7081 347.036C-23.5054 344.223 -20.2019 343.454 -16.618 345.586C-14.5554 346.813 -13.2324 348.258 -12.7345 349.211L-13.6113 349.901C-13.9619 349.208 -15.0476 347.662 -17.0587 346.466C-20.823 344.227 -22.9082 345.927 -23.5921 347.527C-24.4764 349.596 -23.8703 351.583 -20.9054 354.558C-17.7321 357.725 -16.2752 360.218 -17.7255 363.611C-18.8103 366.149 -21.8274 367.987 -26.5457 365.181C-28.3763 364.092 -30.2967 362.154 -31.1613 360.394ZM-9.16407 375.001L-1.2286 356.436L-7.95799 352.433L-7.5453 351.468L6.9448 360.087L6.53211 361.053L-0.171493 357.065L-8.10696 375.63L-9.16407 375.001ZM10.7859 362.372L11.843 363.001L3.49483 382.532L2.43772 381.903L10.7859 362.372ZM27.4392 384.873L23.7958 393.397C22.7165 393.274 20.3097 392.776 17.422 391.058C14.7921 389.494 12.7148 387.393 11.5387 384.168C10.6241 381.617 10.7365 378.328 12.0217 375.321C13.9909 370.714 19.4121 367.261 26.5798 371.525C28.7456 372.813 30.277 374.451 30.8081 375.251L30.0322 375.932C29.1991 374.779 27.9977 373.579 26.1155 372.46C20.1339 368.902 15.1895 371.012 13.0553 376.005C10.8031 381.274 12.4858 386.946 18.0807 390.274C20.3496 391.624 21.9586 392.096 23.0098 392.133L25.9812 385.182L21.2371 382.36L21.638 381.422L27.4392 384.873Z" fill="#666666" fill-opacity="0.63"/>
<path d="M284.83 398.917L284.423 397.646C286.119 397.195 287.693 396.044 289.026 394.157C291.241 391.021 291.149 387.816 289.224 385.923C287.362 384.094 285.626 384.089 282.484 386.689C278.471 390.009 276.414 389.689 274.595 387.901C272.413 385.756 272.316 381.84 274.721 378.434C276.106 376.474 277.551 375.403 278.442 375.117L278.879 376.294C278.234 376.49 276.743 377.266 275.393 379.177C272.866 382.755 273.957 385.572 275.198 386.791C276.803 388.369 278.587 388.255 281.603 385.781C284.818 383.128 287.174 382.206 289.805 384.793C291.773 386.727 292.825 390.626 289.658 395.111C288.429 396.85 286.465 398.449 284.83 398.917ZM300.887 378.444L286.489 364.29L281.971 370.686L281.223 369.95L290.95 356.179L291.699 356.915L287.199 363.286L301.596 377.44L300.887 378.444ZM293.529 352.528L294.238 351.524L309.385 366.414L308.675 367.419L293.529 352.528ZM315.377 340.278L321.988 346.777C321.703 347.95 320.878 350.503 318.94 353.247C317.174 355.746 315.047 357.475 312.118 357.875C309.804 358.175 307.036 357.115 304.705 354.822C301.132 351.31 299.115 344.262 303.926 337.45C305.38 335.391 307.024 334.142 307.791 333.775L308.237 334.837C307.121 335.442 305.904 336.446 304.641 338.235C300.625 343.92 301.585 350.053 305.457 353.86C309.543 357.877 314.629 357.604 318.386 352.287C319.909 350.131 320.578 348.464 320.786 347.298L315.395 341.998L312.21 346.507L311.483 345.791L315.377 340.278Z" fill="#666666" fill-opacity="0.63"/>
<path d="M572.665 201.619L572.278 202.851C570.577 202.156 568.576 202.078 566.355 202.716C562.665 203.776 560.896 206.306 561.442 208.951C561.97 211.507 563.443 212.578 567.611 212.501C572.936 212.403 574.501 213.914 575.016 216.412C575.634 219.409 573.461 222.492 569.453 223.643C567.146 224.305 565.301 224.244 564.378 223.918L564.685 222.74C565.347 222.986 567.061 223.303 569.31 222.657C573.52 221.447 574.216 218.602 573.864 216.898C573.409 214.695 571.827 213.686 567.837 213.743C563.576 213.815 561.042 213.08 560.296 209.467C559.738 206.764 561.091 203.107 566.368 201.592C568.415 201.004 571.005 200.975 572.665 201.619ZM547.218 207.559L551.299 227.332L558.825 225.17L559.037 226.199L542.832 230.853L542.62 229.825L550.117 227.671L546.036 207.898L547.218 207.559ZM538.537 232.087L537.354 232.426L533.061 211.625L534.243 211.285L538.537 232.087ZM512.905 228.12L511.032 219.042C511.95 218.311 514.122 216.847 517.351 215.919C520.292 215.075 523.097 215.047 525.817 216.538C527.957 217.728 529.698 220.247 530.359 223.449C531.372 228.356 529.024 235.037 521.008 237.339C518.586 238.035 516.469 237.989 515.606 237.802L515.838 236.708C517.136 236.927 518.749 236.899 520.854 236.294C527.543 234.373 530.262 229.048 529.165 223.73C528.007 218.119 523.526 215.204 517.269 217.001C514.732 217.73 513.202 218.605 512.353 219.378L513.881 226.782L519.187 225.258L519.393 226.257L512.905 228.12Z" fill="#666666" fill-opacity="0.63"/>
<path d="M284.83 398.917L284.423 397.646C286.119 397.195 287.693 396.044 289.026 394.157C291.241 391.021 291.149 387.816 289.224 385.923C287.362 384.094 285.626 384.089 282.484 386.689C278.471 390.009 276.414 389.689 274.595 387.901C272.413 385.756 272.316 381.84 274.721 378.434C276.106 376.474 277.551 375.403 278.442 375.117L278.879 376.294C278.234 376.49 276.743 377.266 275.393 379.177C272.866 382.755 273.957 385.572 275.198 386.791C276.803 388.369 278.587 388.255 281.603 385.781C284.818 383.128 287.174 382.206 289.805 384.793C291.773 386.727 292.825 390.626 289.658 395.111C288.429 396.85 286.465 398.449 284.83 398.917ZM300.887 378.444L286.489 364.29L281.971 370.686L281.223 369.95L290.95 356.179L291.699 356.915L287.199 363.286L301.596 377.44L300.887 378.444ZM293.529 352.528L294.238 351.524L309.385 366.414L308.675 367.419L293.529 352.528ZM315.377 340.278L321.988 346.777C321.703 347.95 320.878 350.503 318.94 353.247C317.174 355.746 315.047 357.475 312.118 357.875C309.804 358.175 307.036 357.115 304.705 354.822C301.132 351.31 299.115 344.262 303.926 337.45C305.38 335.391 307.024 334.142 307.791 333.775L308.237 334.837C307.121 335.442 305.904 336.446 304.641 338.235C300.625 343.92 301.585 350.053 305.457 353.86C309.543 357.877 314.629 357.604 318.386 352.287C319.909 350.131 320.578 348.464 320.786 347.298L315.395 341.998L312.21 346.507L311.483 345.791L315.377 340.278Z" fill="#666666" fill-opacity="0.63"/>
<path d="M572.665 201.619L572.278 202.851C570.577 202.156 568.576 202.078 566.355 202.716C562.665 203.776 560.896 206.306 561.442 208.951C561.97 211.507 563.443 212.578 567.611 212.501C572.936 212.403 574.501 213.914 575.016 216.412C575.634 219.409 573.461 222.492 569.453 223.643C567.146 224.305 565.301 224.244 564.378 223.918L564.685 222.74C565.347 222.986 567.061 223.303 569.31 222.657C573.52 221.447 574.216 218.602 573.864 216.898C573.409 214.695 571.827 213.686 567.837 213.743C563.576 213.815 561.042 213.08 560.296 209.467C559.738 206.764 561.091 203.107 566.368 201.592C568.415 201.004 571.005 200.975 572.665 201.619ZM547.218 207.559L551.299 227.332L558.825 225.17L559.037 226.199L542.832 230.853L542.62 229.825L550.117 227.671L546.036 207.898L547.218 207.559ZM538.537 232.087L537.354 232.426L533.061 211.625L534.243 211.285L538.537 232.087ZM512.905 228.12L511.032 219.042C511.95 218.311 514.122 216.847 517.351 215.919C520.292 215.075 523.097 215.047 525.817 216.538C527.957 217.728 529.698 220.247 530.359 223.449C531.372 228.356 529.024 235.037 521.008 237.339C518.586 238.035 516.469 237.989 515.606 237.802L515.838 236.708C517.136 236.927 518.749 236.899 520.854 236.294C527.543 234.373 530.262 229.048 529.165 223.73C528.007 218.119 523.526 215.204 517.269 217.001C514.732 217.73 513.202 218.605 512.353 219.378L513.881 226.782L519.187 225.258L519.393 226.257L512.905 228.12Z" fill="#666666" fill-opacity="0.63"/>
<path d="M530.021 260.027L530.478 261.28C528.799 261.797 527.268 263.009 526.008 264.945C523.914 268.163 524.132 271.358 526.134 273.17C528.068 274.922 529.806 274.858 532.849 272.138C536.735 268.664 538.807 268.902 540.697 270.614C542.965 272.668 543.216 276.572 540.942 280.067C539.633 282.079 538.229 283.205 537.348 283.526L536.864 282.369C537.503 282.148 538.965 281.313 540.241 279.352C542.63 275.681 541.427 272.913 540.137 271.745C538.469 270.235 536.688 270.42 533.766 273.009C530.653 275.784 528.331 276.799 525.596 274.322C523.55 272.47 522.344 268.62 525.339 264.019C526.5 262.233 528.403 260.559 530.021 260.027ZM514.754 281.1L529.719 294.652L533.99 288.089L534.768 288.794L525.573 302.926L524.794 302.221L529.048 295.683L514.083 282.131L514.754 281.1ZM523.135 306.672L522.464 307.703L506.72 293.445L507.391 292.414L523.135 306.672ZM501.749 319.769L494.877 313.546C495.116 312.364 495.841 309.784 497.674 306.967C499.343 304.403 501.404 302.593 504.32 302.076C506.624 301.685 509.436 302.633 511.86 304.828C515.573 308.191 517.869 315.145 513.32 322.135C511.946 324.247 510.35 325.56 509.596 325.957L509.108 324.915C510.201 324.267 511.38 323.216 512.574 321.38C516.37 315.547 515.169 309.463 511.144 305.818C506.897 301.972 501.817 302.447 498.266 307.903C496.827 310.116 496.222 311.806 496.06 312.978L501.663 318.053L504.674 313.426L505.43 314.111L501.749 319.769Z" fill="#666666" fill-opacity="0.63"/>
<path d="M305.756 139.227L306.098 137.976C307.816 138.594 309.812 138.583 312.001 137.843C315.639 136.615 317.311 134 316.674 131.376C316.058 128.839 314.553 127.834 310.405 128.099C305.105 128.438 303.494 126.995 302.893 124.517C302.171 121.544 304.227 118.357 308.177 117.023C310.451 116.255 312.291 116.233 313.221 116.518L312.957 117.711C312.29 117.495 310.571 117.255 308.354 118.004C304.204 119.406 303.612 122.287 304.023 123.978C304.553 126.164 306.165 127.103 310.136 126.865C314.377 126.6 316.926 127.221 317.797 130.807C318.448 133.489 317.229 137.213 312.028 138.97C310.01 139.651 307.431 139.797 305.756 139.227ZM330.888 132.126L326.126 112.506L318.708 115.012L318.46 113.991L334.433 108.596L334.681 109.616L327.291 112.112L332.053 131.733L330.888 132.126ZM338.668 107.166L339.833 106.772L344.843 127.413L343.677 127.806L338.668 107.166ZM364.333 109.978L366.519 118.987C365.63 119.76 363.519 121.325 360.336 122.4C357.437 123.379 354.645 123.534 351.883 122.164C349.711 121.068 347.887 118.625 347.116 115.447C345.934 110.578 348.036 103.78 355.938 101.111C358.325 100.305 360.435 100.255 361.301 100.404L361.109 101.51C359.809 101.349 358.203 101.45 356.129 102.151C349.535 104.378 347.015 109.835 348.296 115.111C349.647 120.68 354.212 123.396 360.38 121.313C362.881 120.468 364.373 119.522 365.191 118.71L363.408 111.363L358.178 113.13L357.938 112.139L364.333 109.978Z" fill="#666666" fill-opacity="0.63"/>
<path d="M394.323 261.967L394.78 263.22C393.101 263.738 391.57 264.949 390.31 266.885C388.216 270.104 388.434 273.299 390.435 275.111C392.37 276.863 394.108 276.799 397.15 274.079C401.037 270.605 403.108 270.842 404.999 272.554C407.267 274.608 407.518 278.512 405.244 282.007C403.935 284.019 402.531 285.145 401.65 285.467L401.166 284.309C401.805 284.088 403.266 283.254 404.543 281.293C406.932 277.621 405.729 274.854 404.439 273.686C402.771 272.175 400.99 272.36 398.068 274.95C394.954 277.725 392.633 278.74 389.898 276.263C387.852 274.41 386.646 270.561 389.641 265.959C390.802 264.174 392.705 262.5 394.323 261.967ZM379.056 283.04L394.021 296.593L398.292 290.03L399.07 290.735L389.874 304.866L389.096 304.161L393.35 297.624L378.385 284.071L379.056 283.04ZM387.437 308.612L386.766 309.643L371.022 295.386L371.693 294.355L387.437 308.612ZM366.05 321.709L359.179 315.487C359.418 314.305 360.143 311.724 361.976 308.908C363.645 306.343 365.706 304.533 368.622 304.017C370.926 303.626 373.738 304.573 376.161 306.768C379.875 310.131 382.17 317.086 377.622 324.076C376.247 326.188 374.651 327.5 373.898 327.897L373.41 326.855C374.503 326.207 375.682 325.156 376.876 323.321C380.672 317.487 379.471 311.404 375.446 307.759C371.199 303.913 366.119 304.388 362.568 309.844C361.128 312.057 360.523 313.747 360.361 314.919L365.965 319.994L368.976 315.367L369.732 316.052L366.05 321.709Z" fill="#666666" fill-opacity="0.63"/>
<path d="M415.801 232.913L416.143 231.662C417.861 232.28 419.857 232.268 422.046 231.529C425.684 230.3 427.356 227.685 426.719 225.061C426.103 222.525 424.598 221.519 420.45 221.785C415.15 222.124 413.539 220.681 412.938 218.203C412.216 215.229 414.272 212.043 418.223 210.708C420.496 209.94 422.336 209.918 423.266 210.203L423.003 211.396C422.335 211.18 420.616 210.941 418.399 211.689C414.25 213.091 413.657 215.972 414.068 217.663C414.598 219.85 416.21 220.788 420.181 220.551C424.422 220.285 426.971 220.907 427.842 224.493C428.493 227.175 427.275 230.898 422.073 232.655C420.055 233.337 417.477 233.482 415.801 232.913ZM440.933 225.812L436.171 206.191L428.753 208.697L428.505 207.677L444.479 202.281L444.726 203.302L437.336 205.798L442.098 225.418L440.933 225.812ZM448.713 200.851L449.878 200.457L454.888 221.098L453.723 221.492L448.713 200.851ZM474.378 203.664L476.564 212.672C475.676 213.446 473.564 215.01 470.381 216.086C467.482 217.065 464.69 217.219 461.928 215.85C459.756 214.754 457.933 212.31 457.161 209.132C455.98 204.264 458.082 197.466 465.983 194.797C468.37 193.99 470.48 193.94 471.347 194.089L471.154 195.195C469.854 195.035 468.249 195.136 466.174 195.836C459.58 198.064 457.06 203.52 458.341 208.797C459.692 214.365 464.257 217.082 470.425 214.998C472.926 214.154 474.419 213.208 475.236 212.395L473.453 205.049L468.223 206.815L467.983 205.824L474.378 203.664Z" fill="#666666" fill-opacity="0.63"/>
<path d="M123.845 157.541L124.302 158.794C122.622 159.311 121.092 160.522 119.832 162.458C117.738 165.677 117.956 168.872 119.957 170.684C121.892 172.436 123.63 172.372 126.672 169.652C130.558 166.178 132.63 166.416 134.52 168.127C136.788 170.181 137.04 174.085 134.765 177.581C133.456 179.592 132.052 180.718 131.172 181.04L130.688 179.882C131.326 179.661 132.788 178.827 134.064 176.866C136.453 173.195 135.25 170.427 133.961 169.259C132.293 167.749 130.511 167.934 127.59 170.523C124.476 173.298 122.155 174.313 119.42 171.836C117.374 169.983 116.168 166.134 119.162 161.532C120.324 159.747 122.226 158.073 123.845 157.541ZM108.577 178.613L123.543 192.166L127.813 185.603L128.592 186.308L119.396 200.439L118.618 199.735L122.872 193.197L107.907 179.644L108.577 178.613ZM116.958 204.185L116.288 205.216L100.544 190.959L101.215 189.928L116.958 204.185ZM95.572 217.282L88.7008 211.06C88.9399 209.878 89.6649 207.297 91.4975 204.481C93.1664 201.916 95.2277 200.106 98.1436 199.59C100.448 199.199 103.259 200.146 105.683 202.341C109.397 205.704 111.692 212.659 107.143 219.649C105.769 221.761 104.173 223.073 103.42 223.47L102.932 222.429C104.025 221.78 105.203 220.729 106.398 218.894C110.194 213.06 108.993 206.977 104.968 203.332C100.721 199.486 95.6405 199.961 92.0899 205.417C90.65 207.63 90.045 209.32 89.8831 210.492L95.4868 215.567L98.4975 210.94L99.2535 211.625L95.572 217.282Z" fill="#666666" fill-opacity="0.63"/>
<path d="M144.275 301.835L143.406 302.66C142.265 301.027 140.598 299.741 138.432 298.938C134.831 297.604 132.219 298.707 131.525 301.316C130.854 303.839 131.637 305.657 135.213 308.129C139.781 311.286 140.449 313.539 139.793 316.004C139.006 318.961 135.808 320.292 131.898 318.844C129.647 318.01 128.106 316.834 127.465 315.992L128.241 315.165C128.696 315.779 130.014 317.095 132.209 317.908C136.316 319.429 138.153 317.403 138.601 315.721C139.18 313.547 138.276 311.716 134.861 309.336C131.208 306.804 129.376 304.629 130.325 301.063C131.035 298.396 133.787 296.071 138.935 297.978C140.932 298.718 143.146 300.27 144.275 301.835ZM120.047 291.46L114.854 310.97L122.196 313.69L121.926 314.705L106.116 308.849L106.386 307.834L113.7 310.543L118.893 291.032L120.047 291.46ZM101.925 307.296L100.771 306.869L106.234 286.343L107.388 286.771L101.925 307.296ZM81.8799 288.279L84.2641 279.32C85.3645 279.25 87.8515 279.312 91.0023 280.479C93.8718 281.541 96.267 283.225 97.9262 286.164C99.2229 288.492 99.5997 291.721 98.7587 294.881C97.4701 299.722 92.5488 304.046 84.7281 301.149C82.365 300.274 80.5859 298.946 79.9343 298.259L80.6109 297.459C81.6178 298.437 83.0007 299.395 85.0544 300.156C91.5811 302.573 96.2241 299.643 97.6207 294.396C99.0945 288.858 96.5633 283.621 90.4586 281.36C87.983 280.443 86.2996 280.265 85.24 280.414L83.2956 287.72L88.4719 289.637L88.2096 290.623L81.8799 288.279Z" fill="#666666" fill-opacity="0.63"/>
<path d="M144.275 301.835L143.406 302.66C142.265 301.027 140.598 299.741 138.432 298.938C134.831 297.604 132.219 298.707 131.525 301.316C130.854 303.839 131.637 305.657 135.213 308.129C139.781 311.286 140.449 313.539 139.793 316.004C139.006 318.961 135.808 320.292 131.898 318.844C129.647 318.01 128.106 316.834 127.465 315.992L128.241 315.165C128.696 315.779 130.014 317.095 132.209 317.908C136.316 319.429 138.153 317.403 138.601 315.721C139.18 313.547 138.276 311.716 134.861 309.336C131.208 306.804 129.376 304.629 130.325 301.063C131.035 298.396 133.787 296.071 138.935 297.978C140.932 298.718 143.146 300.27 144.275 301.835ZM120.047 291.46L114.854 310.97L122.196 313.69L121.926 314.705L106.116 308.849L106.386 307.834L113.7 310.543L118.893 291.032L120.047 291.46ZM101.925 307.296L100.771 306.869L106.234 286.343L107.388 286.771L101.925 307.296ZM81.8799 288.279L84.2641 279.32C85.3645 279.25 87.8515 279.312 91.0023 280.479C93.8718 281.541 96.267 283.225 97.9262 286.164C99.2229 288.492 99.5997 291.721 98.7587 294.881C97.4701 299.722 92.5488 304.046 84.7281 301.149C82.365 300.274 80.5859 298.946 79.9343 298.259L80.6109 297.459C81.6178 298.437 83.0007 299.395 85.0544 300.156C91.5811 302.573 96.2241 299.643 97.6207 294.396C99.0945 288.858 96.5633 283.621 90.4586 281.36C87.983 280.443 86.2996 280.265 85.24 280.414L83.2956 287.72L88.4719 289.637L88.2096 290.623L81.8799 288.279Z" fill="#666666" fill-opacity="0.63"/>
<path d="M257.114 279.3L257.719 280.479C256.1 281.198 254.712 282.584 253.681 284.651C251.967 288.087 252.564 291.213 254.782 292.752C256.926 294.241 258.658 293.962 261.38 290.9C264.857 286.989 266.959 286.966 269.053 288.42C271.567 290.165 272.282 293.987 270.42 297.718C269.349 299.866 268.077 301.151 267.234 301.578L266.612 300.496C267.225 300.199 268.589 299.194 269.634 297.1C271.589 293.181 270.057 290.599 268.627 289.606C266.779 288.323 265.018 288.727 262.401 291.645C259.615 294.77 257.412 296.06 254.381 293.956C252.114 292.382 250.45 288.733 252.901 283.82C253.852 281.914 255.557 280.026 257.114 279.3ZM244.334 301.99L260.919 313.505L264.414 306.498L265.277 307.097L257.75 322.184L256.888 321.585L260.37 314.605L243.785 303.091L244.334 301.99ZM255.755 326.183L255.206 327.284L237.759 315.171L238.308 314.07L255.755 326.183ZM235.906 341.763L228.291 336.477C228.39 335.281 228.81 332.644 230.31 329.638C231.676 326.899 233.524 324.857 236.381 323.986C238.64 323.313 241.566 323.899 244.252 325.764C248.368 328.621 251.49 335.198 247.767 342.661C246.642 344.916 245.201 346.409 244.494 346.895L243.882 345.927C244.899 345.152 245.954 343.968 246.931 342.009C250.038 335.781 248.114 329.927 243.654 326.831C238.947 323.563 233.92 324.662 231.014 330.488C229.835 332.85 229.43 334.593 229.407 335.77L235.617 340.081L238.081 335.142L238.919 335.723L235.906 341.763Z" fill="#666666" fill-opacity="0.63"/>
<path d="M257.114 279.3L257.719 280.479C256.1 281.198 254.712 282.584 253.681 284.651C251.967 288.087 252.564 291.213 254.782 292.752C256.926 294.241 258.658 293.962 261.38 290.9C264.857 286.989 266.959 286.966 269.053 288.42C271.567 290.165 272.282 293.987 270.42 297.718C269.349 299.866 268.077 301.151 267.234 301.578L266.612 300.496C267.225 300.199 268.589 299.194 269.634 297.1C271.589 293.181 270.057 290.599 268.627 289.606C266.779 288.323 265.018 288.727 262.401 291.645C259.615 294.77 257.412 296.06 254.381 293.956C252.114 292.382 250.45 288.733 252.901 283.82C253.852 281.914 255.557 280.026 257.114 279.3ZM244.334 301.99L260.919 313.505L264.414 306.498L265.277 307.097L257.75 322.184L256.888 321.585L260.37 314.605L243.785 303.091L244.334 301.99ZM255.755 326.183L255.206 327.284L237.759 315.171L238.308 314.07L255.755 326.183ZM235.906 341.763L228.291 336.477C228.39 335.281 228.81 332.644 230.31 329.638C231.676 326.899 233.524 324.857 236.381 323.986C238.64 323.313 241.566 323.899 244.252 325.764C248.368 328.621 251.49 335.198 247.767 342.661C246.642 344.916 245.201 346.409 244.494 346.895L243.882 345.927C244.899 345.152 245.954 343.968 246.931 342.009C250.038 335.781 248.114 329.927 243.654 326.831C238.947 323.563 233.92 324.662 231.014 330.488C229.835 332.85 229.43 334.593 229.407 335.77L235.617 340.081L238.081 335.142L238.919 335.723L235.906 341.763Z" fill="#666666" fill-opacity="0.63"/>
<path d="M562.078 378.523L561.426 377.373C563.022 376.589 564.361 375.15 565.316 373.047C566.904 369.55 566.186 366.46 563.904 365.017C561.698 363.623 559.972 363.973 557.359 367.138C554.022 371.181 551.915 371.291 549.76 369.928C547.173 368.293 546.311 364.514 548.036 360.718C549.028 358.532 550.255 357.198 551.084 356.738L551.748 357.79C551.145 358.112 549.816 359.171 548.848 361.301C547.037 365.289 548.671 367.799 550.142 368.728C552.044 369.931 553.794 369.455 556.307 366.438C558.982 363.207 561.141 361.83 564.261 363.801C566.594 365.276 568.4 368.844 566.13 373.842C565.249 375.782 563.611 377.735 562.078 378.523ZM574.028 355.375L556.962 344.587L553.724 351.716L552.836 351.155L559.808 335.805L560.696 336.366L557.47 343.467L574.537 354.255L574.028 355.375ZM561.657 331.735L562.165 330.616L580.119 341.964L579.611 343.084L561.657 331.735ZM580.966 315.381L588.802 320.334C588.748 321.53 588.427 324.176 587.038 327.235C585.773 330.021 583.997 332.133 581.166 333.121C578.926 333.885 575.97 333.422 573.206 331.675C568.971 328.998 565.59 322.572 569.039 314.979C570.081 312.684 571.47 311.136 572.16 310.623L572.811 311.562C571.82 312.377 570.808 313.6 569.902 315.594C567.024 321.931 569.175 327.686 573.765 330.587C578.609 333.649 583.608 332.344 586.3 326.417C587.392 324.013 587.731 322.259 587.71 321.085L581.319 317.046L579.037 322.072L578.174 321.527L580.966 315.381Z" fill="#666666" fill-opacity="0.63"/>
<path d="M339.473 22.8906L339.325 24.2C337.565 23.8871 335.627 24.2523 333.61 25.3775C330.256 27.2481 329.017 30.1542 330.021 32.6604C330.992 35.083 332.602 35.8205 336.593 34.8209C341.692 33.5444 343.469 34.6995 344.418 37.0665C345.556 39.9069 344.027 43.4512 340.386 45.4826C338.29 46.6517 336.506 46.9994 335.56 46.8795L335.641 45.6418C336.321 45.7394 338.026 45.6743 340.07 44.5344C343.895 42.4008 344.047 39.42 343.399 37.8049C342.562 35.7164 340.859 35.0653 337.036 36.005C332.955 37.0207 330.387 36.8518 329.014 33.4266C327.987 30.8648 328.623 26.9325 333.418 24.2581C335.278 23.2206 337.761 22.6188 339.473 22.8906ZM316.102 34.4276L323.613 53.1683L330.452 49.3541L330.842 50.3287L316.118 58.5418L315.727 57.5671L322.539 53.7675L315.028 35.0267L316.102 34.4276ZM312.215 60.7189L311.141 61.3181L303.239 41.6027L304.313 41.0035L312.215 60.7189ZM286.868 62.4546L283.419 53.85C284.169 52.9208 285.99 50.9852 288.924 49.3485C291.597 47.8579 294.286 47.2095 297.171 48.0878C299.442 48.7969 301.573 50.9134 302.79 53.9487C304.653 58.5991 303.611 65.7564 296.328 69.8191C294.127 71.0466 292.085 71.4702 291.221 71.475L291.246 70.3368C292.532 70.2667 294.077 69.882 295.989 68.8152C302.068 65.4248 303.713 59.5324 301.693 54.4922C299.561 49.1735 294.727 47.2702 289.042 50.4414C286.736 51.7274 285.425 52.9357 284.75 53.8913L287.563 60.9087L292.384 58.2197L292.763 59.1665L286.868 62.4546Z" fill="#666666" fill-opacity="0.63"/>
<path d="M426.38 380.463L425.727 379.313C427.324 378.529 428.663 377.09 429.618 374.987C431.206 371.49 430.488 368.4 428.206 366.957C426 365.563 424.274 365.913 421.661 369.078C418.324 373.121 416.217 373.231 414.062 371.869C411.475 370.234 410.613 366.454 412.338 362.658C413.33 360.472 414.556 359.138 415.386 358.678L416.05 359.731C415.447 360.052 414.117 361.111 413.15 363.241C411.338 367.229 412.973 369.739 414.444 370.669C416.346 371.871 418.096 371.395 420.608 368.378C423.284 365.147 425.443 363.77 428.562 365.741C430.895 367.216 432.702 370.784 430.432 375.782C429.551 377.722 427.913 379.675 426.38 380.463ZM438.33 357.315L421.263 346.527L418.025 353.657L417.138 353.096L424.11 337.745L424.998 338.306L421.772 345.408L438.838 356.195L438.33 357.315ZM425.958 333.676L426.467 332.556L444.421 343.904L443.912 345.024L425.958 333.676ZM445.268 317.321L453.103 322.274C453.049 323.47 452.729 326.116 451.34 329.175C450.074 331.961 448.299 334.073 445.468 335.061C443.228 335.825 440.272 335.362 437.508 333.615C433.273 330.938 429.892 324.512 433.341 316.919C434.383 314.624 435.772 313.076 436.462 312.563L437.112 313.502C436.122 314.317 435.109 315.54 434.204 317.534C431.325 323.871 433.477 329.626 438.067 332.527C442.91 335.589 447.909 334.284 450.602 328.357C451.693 325.953 452.033 324.199 452.011 323.025L445.621 318.986L443.338 324.012L442.476 323.467L445.268 317.321Z" fill="#666666" fill-opacity="0.63"/>
<path d="M449.519 116.576L449.37 117.885C447.61 117.572 445.673 117.937 443.655 119.063C440.302 120.933 439.062 123.839 440.067 126.346C441.038 128.768 442.647 129.506 446.639 128.506C451.737 127.23 453.514 128.385 454.463 130.752C455.601 133.592 454.073 137.136 450.431 139.168C448.335 140.337 446.551 140.685 445.605 140.565L445.686 139.327C446.367 139.425 448.071 139.359 450.115 138.22C453.94 136.086 454.092 133.105 453.445 131.49C452.608 129.402 450.904 128.75 447.081 129.69C443 130.706 440.432 130.537 439.059 127.112C438.033 124.55 438.668 120.618 443.463 117.943C445.323 116.906 447.807 116.304 449.519 116.576ZM426.148 128.113L433.659 146.854L440.497 143.039L440.888 144.014L426.163 152.227L425.773 151.252L432.585 147.453L425.073 128.712L426.148 128.113ZM422.26 154.404L421.186 155.003L413.284 135.288L414.358 134.689L422.26 154.404ZM396.914 156.14L393.465 147.535C394.214 146.606 396.035 144.67 398.97 143.034C401.642 141.543 404.332 140.895 407.216 141.773C409.488 142.482 411.618 144.599 412.835 147.634C414.699 152.284 413.656 159.442 406.373 163.504C404.172 164.732 402.13 165.155 401.266 165.16L401.291 164.022C402.577 163.952 404.122 163.567 406.035 162.5C412.113 159.11 413.759 153.218 411.738 148.177C409.607 142.859 404.773 140.955 399.087 144.127C396.782 145.413 395.471 146.621 394.796 147.576L397.608 154.594L402.429 151.905L402.809 152.852L396.914 156.14Z" fill="#666666" fill-opacity="0.63"/>
<path d="M155.902 276.037L155.25 274.886C156.846 274.102 158.185 272.663 159.14 270.56C160.728 267.064 160.01 263.973 157.728 262.531C155.522 261.136 153.796 261.487 151.183 264.652C147.846 268.694 145.739 268.805 143.584 267.442C140.997 265.807 140.135 262.028 141.86 258.231C142.852 256.046 144.079 254.712 144.908 254.251L145.572 255.304C144.969 255.626 143.64 256.684 142.672 258.815C140.861 262.803 142.495 265.312 143.966 266.242C145.868 267.444 147.618 266.968 150.131 263.951C152.806 260.72 154.965 259.343 158.085 261.315C160.417 262.789 162.224 266.357 159.954 271.356C159.073 273.295 157.435 275.248 155.902 276.037ZM167.852 252.889L150.786 242.101L147.548 249.23L146.66 248.669L153.632 233.318L154.52 233.879L151.294 240.981L168.361 251.769L167.852 252.889ZM155.481 229.249L155.989 228.129L173.943 239.478L173.435 240.598L155.481 229.249ZM174.79 212.894L182.626 217.847C182.572 219.044 182.251 221.689 180.862 224.748C179.597 227.534 177.821 229.647 174.99 230.634C172.75 231.398 169.794 230.936 167.03 229.189C162.795 226.512 159.414 220.086 162.863 212.492C163.905 210.198 165.294 208.65 165.984 208.137L166.635 209.075C165.644 209.891 164.632 211.114 163.726 213.108C160.848 219.445 162.999 225.199 167.589 228.101C172.433 231.162 177.432 229.857 180.124 223.93C181.216 221.526 181.555 219.772 181.534 218.599L175.143 214.559L172.86 219.585L171.998 219.04L174.79 212.894Z" fill="#666666" fill-opacity="0.63"/>
<path d="M155.618 410.213L156.695 410.851C155.548 412.373 154.908 414.318 154.897 416.628C154.878 420.468 156.817 422.732 159.517 422.75C162.127 422.768 163.573 421.548 164.673 417.445C166.078 412.205 167.974 410.988 170.524 411.005C173.584 411.026 175.941 413.802 175.92 417.972C175.908 420.372 175.33 422.168 174.756 423.004L173.708 422.457C174.131 421.86 174.919 420.245 174.931 417.905C174.952 413.525 172.408 412.248 170.668 412.236C168.418 412.221 167.002 413.561 165.933 417.484C164.802 421.676 163.38 424.007 159.691 423.981C156.931 423.962 153.791 421.871 153.818 416.381C153.828 414.251 154.531 411.706 155.618 410.213ZM154.169 436.402L174.359 436.541L174.397 428.711L175.447 428.718L175.365 445.578L174.315 445.57L174.353 437.771L154.163 437.632L154.169 436.402ZM175.343 450.047L175.337 451.277L154.097 451.132L154.103 449.902L175.343 450.047ZM164.303 474.343L155.033 474.279C154.589 473.226 153.79 470.791 153.807 467.431C153.822 464.371 154.586 461.616 156.787 459.261C158.536 457.413 161.452 456.233 164.722 456.255C169.732 456.29 175.504 459.989 175.463 468.329C175.45 470.849 174.81 472.915 174.386 473.722L173.399 473.265C173.975 472.039 174.402 470.452 174.413 468.262C174.447 461.302 170.086 457.522 164.656 457.485C158.926 457.446 154.857 461.228 154.826 467.738C154.813 470.378 155.224 472.061 155.729 473.054L163.289 473.106L163.316 467.586L164.336 467.593L164.303 474.343Z" fill="#666666" fill-opacity="0.63"/>
<path d="M155.618 410.213L156.695 410.851C155.548 412.373 154.908 414.318 154.897 416.628C154.878 420.468 156.817 422.732 159.517 422.75C162.127 422.768 163.573 421.548 164.673 417.445C166.078 412.205 167.974 410.988 170.524 411.005C173.584 411.026 175.941 413.802 175.92 417.972C175.908 420.372 175.33 422.168 174.756 423.004L173.708 422.457C174.131 421.86 174.919 420.245 174.931 417.905C174.952 413.525 172.408 412.248 170.668 412.236C168.418 412.221 167.002 413.561 165.933 417.484C164.802 421.676 163.38 424.007 159.691 423.981C156.931 423.962 153.791 421.871 153.818 416.381C153.828 414.251 154.531 411.706 155.618 410.213ZM154.169 436.402L174.359 436.541L174.397 428.711L175.447 428.718L175.365 445.578L174.315 445.57L174.353 437.771L154.163 437.632L154.169 436.402ZM175.343 450.047L175.337 451.277L154.097 451.132L154.103 449.902L175.343 450.047ZM164.303 474.343L155.033 474.279C154.589 473.226 153.79 470.791 153.807 467.431C153.822 464.371 154.586 461.616 156.787 459.261C158.536 457.413 161.452 456.233 164.722 456.255C169.732 456.29 175.504 459.989 175.463 468.329C175.45 470.849 174.81 472.915 174.386 473.722L173.399 473.265C173.975 472.039 174.402 470.452 174.413 468.262C174.447 461.302 170.086 457.522 164.656 457.485C158.926 457.446 154.857 461.228 154.826 467.738C154.813 470.378 155.224 472.061 155.729 473.054L163.289 473.106L163.316 467.586L164.336 467.593L164.303 474.343Z" fill="#666666" fill-opacity="0.63"/>
<path d="M350.081 290.267L350.901 289.378C352.149 290.909 353.902 292.053 356.126 292.677C359.823 293.715 362.375 292.411 362.908 289.764C363.424 287.206 362.524 285.462 358.781 283.293C353.998 280.522 353.188 278.337 353.692 275.837C354.296 272.837 357.422 271.26 361.437 272.386C363.748 273.035 365.368 274.08 366.064 274.865L365.337 275.749C364.842 275.175 363.437 273.973 361.184 273.34C356.967 272.157 355.249 274.317 354.906 276.022C354.461 278.228 355.482 279.975 359.058 282.066C362.883 284.288 364.857 286.303 364.128 289.92C363.583 292.625 360.967 295.154 355.681 293.671C353.63 293.096 351.312 291.73 350.081 290.267ZM375.044 298.638L379.035 278.846L371.496 276.731L371.703 275.702L387.936 280.256L387.729 281.285L380.219 279.178L376.229 298.97L375.044 298.638ZM392.24 281.463L393.424 281.796L389.226 302.617L388.042 302.284L392.24 281.463ZM413.546 298.751L411.714 307.839C410.614 307.996 408.115 308.134 404.88 307.226C401.933 306.399 399.424 304.919 397.575 302.132C396.128 299.923 395.548 296.747 396.194 293.541C397.184 288.63 401.852 283.943 409.882 286.196C412.309 286.877 414.177 288.053 414.874 288.684L414.245 289.533C413.174 288.642 411.726 287.801 409.617 287.209C402.916 285.329 398.44 288.609 397.367 293.932C396.234 299.549 399.102 304.549 405.37 306.307C407.912 307.02 409.612 307.063 410.666 306.83L412.161 299.419L406.846 297.928L407.047 296.928L413.546 298.751Z" fill="#666666" fill-opacity="0.63"/>
<path d="M466.28 242.01L465.148 242.258C465.068 240.209 464.381 238.178 463.039 236.298C460.807 233.173 458.117 232.717 456.201 234.62C454.35 236.46 454.044 238.476 455.666 242.582C457.738 247.827 457.112 250.161 455.304 251.958C453.133 254.115 449.848 253.54 447.425 250.146C446.03 248.193 445.388 246.326 445.304 245.241L446.363 244.94C446.414 245.724 446.802 247.593 448.162 249.497C450.707 253.061 453.248 252.289 454.482 251.063C456.078 249.477 456.294 247.384 454.755 243.446C453.101 239.245 452.742 236.347 455.359 233.746C457.317 231.801 460.754 231.265 463.944 235.733C465.182 237.466 466.175 240.028 466.28 242.01ZM451.992 219.758L437.671 233.99L442.221 240.362L441.476 241.103L431.678 227.382L432.423 226.642L436.956 232.989L451.277 218.757L451.992 219.758ZM429.081 223.745L428.366 222.744L443.432 207.772L444.147 208.773L429.081 223.745ZM422.664 196.214L429.239 189.679C430.169 190.217 432.155 191.623 434.108 194.358C435.886 196.848 436.958 199.623 436.782 203.095C436.629 205.835 435.262 208.863 432.943 211.168C429.389 214.7 423.155 215.803 418.308 209.015C416.844 206.965 416.088 204.836 415.915 203.881L416.879 203.549C417.189 204.952 417.815 206.542 419.088 208.324C423.133 213.988 428.419 213.952 432.27 210.125C436.335 206.086 436.993 200.13 433.21 194.832C431.676 192.684 430.402 191.613 429.465 191.167L424.102 196.496L427.31 200.988L426.587 201.707L422.664 196.214Z" fill="#666666" fill-opacity="0.63"/>
<path d="M214.382 292.207L215.202 291.319C216.45 292.849 218.203 293.994 220.427 294.618C224.125 295.655 226.676 294.351 227.21 291.705C227.726 289.146 226.826 287.402 223.082 285.233C218.3 282.462 217.489 280.277 217.993 277.778C218.598 274.778 221.724 273.2 225.739 274.327C228.05 274.975 229.67 276.02 230.366 276.806L229.639 277.689C229.144 277.115 227.738 275.913 225.485 275.281C221.268 274.098 219.551 276.257 219.207 277.963C218.763 280.168 219.784 281.915 223.36 284.006C227.185 286.229 229.159 288.243 228.43 291.86C227.884 294.566 225.269 297.095 219.983 295.612C217.932 295.036 215.613 293.671 214.382 292.207ZM239.346 300.578L243.336 280.787L235.797 278.671L236.005 277.642L252.238 282.197L252.031 283.226L244.521 281.119L240.531 300.911L239.346 300.578ZM256.541 283.404L257.726 283.736L253.528 304.557L252.344 304.225L256.541 283.404ZM277.848 300.692L276.016 309.779C274.916 309.937 272.416 310.074 269.181 309.167C266.235 308.34 263.726 306.859 261.877 304.072C260.43 301.864 259.85 298.687 260.496 295.482C261.486 290.571 266.154 285.883 274.184 288.136C276.61 288.817 278.479 289.994 279.176 290.624L278.547 291.473C277.475 290.582 276.027 289.741 273.919 289.15C267.218 287.269 262.741 290.55 261.668 295.873C260.536 301.49 263.404 306.489 269.672 308.248C272.214 308.961 273.914 309.003 274.968 308.771L276.462 301.36L271.148 299.868L271.349 298.869L277.848 300.692Z" fill="#666666" fill-opacity="0.63"/>
<path d="M-56.0956 187.78L-55.2755 186.892C-54.0277 188.423 -52.2747 189.567 -50.0506 190.191C-46.3534 191.228 -43.8016 189.925 -43.2681 187.278C-42.7522 184.719 -43.6519 182.975 -47.3957 180.806C-52.1778 178.035 -52.9885 175.85 -52.4846 173.351C-51.8798 170.351 -48.7541 168.773 -44.7391 169.9C-42.4283 170.548 -40.8079 171.593 -40.1118 172.379L-40.8392 173.262C-41.3339 172.688 -42.7395 171.486 -44.9925 170.854C-49.2097 169.671 -50.9268 171.83 -51.2707 173.536C-51.7153 175.742 -50.6942 177.488 -47.1178 179.579C-43.2933 181.802 -41.319 183.816 -42.0482 187.434C-42.5937 190.139 -45.2092 192.668 -50.4951 191.185C-52.5459 190.609 -54.8648 189.244 -56.0956 187.78ZM-31.1318 196.151L-27.1417 176.36L-34.6806 174.244L-34.4731 173.215L-18.2399 177.77L-18.4474 178.799L-25.9574 176.692L-29.9475 196.484L-31.1318 196.151ZM-13.9367 178.977L-12.7525 179.309L-16.9501 200.13L-18.1344 199.798L-13.9367 178.977ZM7.37011 196.265L5.5381 205.352C4.43821 205.51 1.93847 205.647 -1.29661 204.74C-4.24285 203.913 -6.75201 202.432 -8.6011 199.645C-10.0481 197.437 -10.6284 194.26 -9.98212 191.055C-8.99201 186.144 -4.32381 181.457 3.70612 183.71C6.13243 184.39 8.00097 185.567 8.69785 186.198L8.06893 187.046C6.99731 186.155 5.54942 185.314 3.44084 184.723C-3.2604 182.842 -7.73659 186.123 -8.80971 191.446C-9.94212 197.063 -7.07416 202.062 -0.806185 203.821C1.73567 204.534 3.43621 204.576 4.49019 204.344L5.98426 196.933L0.669482 195.442L0.871062 194.442L7.37011 196.265Z" fill="#666666" fill-opacity="0.63"/>
<path d="M350.081 290.267L350.901 289.378C352.149 290.909 353.902 292.053 356.126 292.677C359.823 293.715 362.375 292.411 362.908 289.764C363.424 287.206 362.524 285.462 358.781 283.293C353.998 280.522 353.188 278.337 353.692 275.837C354.296 272.837 357.422 271.26 361.437 272.386C363.748 273.035 365.368 274.08 366.064 274.865L365.337 275.749C364.842 275.175 363.437 273.973 361.184 273.34C356.967 272.157 355.249 274.317 354.906 276.022C354.461 278.228 355.482 279.975 359.058 282.066C362.883 284.288 364.857 286.303 364.128 289.92C363.583 292.625 360.967 295.154 355.681 293.671C353.63 293.096 351.312 291.73 350.081 290.267ZM375.044 298.638L379.035 278.846L371.496 276.731L371.703 275.702L387.936 280.256L387.729 281.285L380.219 279.178L376.229 298.97L375.044 298.638ZM392.24 281.463L393.424 281.796L389.226 302.617L388.042 302.284L392.24 281.463ZM413.546 298.751L411.714 307.839C410.614 307.996 408.115 308.134 404.88 307.226C401.933 306.399 399.424 304.919 397.575 302.132C396.128 299.923 395.548 296.747 396.194 293.541C397.184 288.63 401.852 283.943 409.882 286.196C412.309 286.877 414.177 288.053 414.874 288.684L414.245 289.533C413.174 288.642 411.726 287.801 409.617 287.209C402.916 285.329 398.44 288.609 397.367 293.932C396.234 299.549 399.102 304.549 405.37 306.307C407.912 307.02 409.612 307.063 410.666 306.83L412.161 299.419L406.846 297.928L407.047 296.928L413.546 298.751Z" fill="#666666" fill-opacity="0.63"/>
<path d="M466.28 242.01L465.148 242.258C465.068 240.209 464.381 238.178 463.039 236.298C460.807 233.173 458.117 232.717 456.201 234.62C454.35 236.46 454.044 238.476 455.666 242.582C457.738 247.827 457.112 250.161 455.304 251.958C453.133 254.115 449.848 253.54 447.425 250.146C446.03 248.193 445.388 246.326 445.304 245.241L446.363 244.94C446.414 245.724 446.802 247.593 448.162 249.497C450.707 253.061 453.248 252.289 454.482 251.063C456.078 249.477 456.294 247.384 454.755 243.446C453.101 239.245 452.742 236.347 455.359 233.746C457.317 231.801 460.754 231.265 463.944 235.733C465.182 237.466 466.175 240.028 466.28 242.01ZM451.992 219.758L437.671 233.99L442.221 240.362L441.476 241.103L431.678 227.382L432.423 226.642L436.956 232.989L451.277 218.757L451.992 219.758ZM429.081 223.745L428.366 222.744L443.432 207.772L444.147 208.773L429.081 223.745ZM422.664 196.214L429.239 189.679C430.169 190.217 432.155 191.623 434.108 194.358C435.886 196.848 436.958 199.623 436.782 203.095C436.629 205.835 435.262 208.863 432.943 211.168C429.389 214.7 423.155 215.803 418.308 209.015C416.844 206.965 416.088 204.836 415.915 203.881L416.879 203.549C417.189 204.952 417.815 206.542 419.088 208.324C423.133 213.988 428.419 213.952 432.27 210.125C436.335 206.086 436.993 200.13 433.21 194.832C431.676 192.684 430.402 191.613 429.465 191.167L424.102 196.496L427.31 200.988L426.587 201.707L422.664 196.214Z" fill="#666666" fill-opacity="0.63"/>
<path d="M214.382 292.207L215.202 291.319C216.45 292.849 218.203 293.994 220.427 294.618C224.125 295.655 226.676 294.351 227.21 291.705C227.726 289.146 226.826 287.402 223.082 285.233C218.3 282.462 217.489 280.277 217.993 277.778C218.598 274.778 221.724 273.2 225.739 274.327C228.05 274.975 229.67 276.02 230.366 276.806L229.639 277.689C229.144 277.115 227.738 275.913 225.485 275.281C221.268 274.098 219.551 276.257 219.207 277.963C218.763 280.168 219.784 281.915 223.36 284.006C227.185 286.229 229.159 288.243 228.43 291.86C227.884 294.566 225.269 297.095 219.983 295.612C217.932 295.036 215.613 293.671 214.382 292.207ZM239.346 300.578L243.336 280.787L235.797 278.671L236.005 277.642L252.238 282.197L252.031 283.226L244.521 281.119L240.531 300.911L239.346 300.578ZM256.541 283.404L257.726 283.736L253.528 304.557L252.344 304.225L256.541 283.404ZM277.848 300.692L276.016 309.779C274.916 309.937 272.416 310.074 269.181 309.167C266.235 308.34 263.726 306.859 261.877 304.072C260.43 301.864 259.85 298.687 260.496 295.482C261.486 290.571 266.154 285.883 274.184 288.136C276.61 288.817 278.479 289.994 279.176 290.624L278.547 291.473C277.475 290.582 276.027 289.741 273.919 289.15C267.218 287.269 262.741 290.55 261.668 295.873C260.536 301.49 263.404 306.489 269.672 308.248C272.214 308.961 273.914 309.003 274.968 308.771L276.462 301.36L271.148 299.868L271.349 298.869L277.848 300.692Z" fill="#666666" fill-opacity="0.63"/>
<path d="M-54.4562 187.78L-53.6361 186.892C-52.3883 188.423 -50.6353 189.567 -48.4112 190.191C-44.714 191.228 -42.1622 189.925 -41.6286 187.278C-41.1128 184.719 -42.0125 182.975 -45.7563 180.806C-50.5384 178.035 -51.3491 175.85 -50.8452 173.351C-50.2404 170.351 -47.1147 168.773 -43.0997 169.9C-40.7889 170.548 -39.1685 171.593 -38.4724 172.379L-39.1998 173.262C-39.6945 172.688 -41.1001 171.486 -43.3531 170.854C-47.5703 169.671 -49.2874 171.83 -49.6313 173.536C-50.0759 175.742 -49.0548 177.488 -45.4784 179.579C-41.6539 181.802 -39.6796 183.816 -40.4088 187.434C-40.9543 190.139 -43.5698 192.668 -48.8557 191.185C-50.9065 190.609 -53.2254 189.244 -54.4562 187.78ZM-29.4924 196.151L-25.5023 176.36L-33.0412 174.244L-32.8337 173.215L-16.6005 177.77L-16.808 178.799L-24.318 176.692L-28.3081 196.484L-29.4924 196.151ZM-12.2973 178.977L-11.1131 179.309L-15.3107 200.13L-16.495 199.798L-12.2973 178.977ZM9.00951 196.265L7.17751 205.352C6.07761 205.51 3.57787 205.647 0.342793 204.74C-2.60344 203.913 -5.11261 202.432 -6.96169 199.645C-8.40867 197.437 -8.98896 194.26 -8.34272 191.055C-7.3526 186.144 -2.68441 181.457 5.34553 183.71C7.77184 184.39 9.64037 185.567 10.3373 186.198L9.70833 187.046C8.63671 186.155 7.18883 185.314 5.08025 184.723C-1.62099 182.842 -6.09719 186.123 -7.1703 191.446C-8.30271 197.063 -5.43475 202.062 0.833219 203.821C3.37507 204.534 5.07561 204.576 6.1296 204.344L7.62366 196.933L2.30889 195.442L2.51047 194.442L9.00951 196.265Z" fill="#666666" fill-opacity="0.63"/>
<path d="M468.633 371.913L467.842 372.837C466.538 371.368 464.742 370.307 462.491 369.787C458.75 368.922 456.238 370.339 455.796 373.003C455.368 375.577 456.331 377.275 460.158 379.266C465.047 381.809 465.936 383.951 465.518 386.466C465.017 389.485 461.94 391.202 457.877 390.263C455.538 389.722 453.878 388.755 453.153 388.003L453.851 387.089C454.367 387.638 455.817 388.773 458.097 389.299C462.365 390.286 464.01 388.054 464.295 386.337C464.664 384.118 463.58 382.423 459.922 380.502C456.012 378.461 453.963 376.544 454.568 372.903C455.02 370.181 457.553 367.539 462.902 368.776C464.977 369.255 467.349 370.51 468.633 371.913ZM443.324 364.712L440.016 384.629L447.645 386.392L447.473 387.428L431.046 383.631L431.218 382.596L438.818 384.352L442.125 364.435L443.324 364.712ZM426.691 382.625L425.493 382.348L428.972 361.395L430.171 361.672L426.691 382.625ZM404.735 366.365L406.254 357.22C407.351 357.013 409.851 356.761 413.125 357.517C416.106 358.206 418.672 359.568 420.623 362.262C422.15 364.397 422.842 367.538 422.306 370.764C421.486 375.706 416.971 380.594 408.845 378.716C406.39 378.148 404.476 377.061 403.756 376.464L404.357 375.589C405.462 376.428 406.942 377.2 409.076 377.693C415.857 379.261 420.228 375.784 421.118 370.428C422.057 364.775 419.008 359.922 412.665 358.456C410.093 357.861 408.387 357.898 407.339 358.178L406.101 365.636L411.479 366.879L411.312 367.885L404.735 366.365Z" fill="#666666" fill-opacity="0.63"/>
<path d="M410.836 93.604L411.957 93.3106C412.118 95.356 412.883 97.3597 414.297 99.1862C416.648 102.223 419.352 102.573 421.188 100.594C422.964 98.6806 423.191 96.6526 421.409 92.6111C419.134 87.4483 419.667 85.0904 421.402 83.2214C423.483 80.9786 426.785 81.424 429.338 84.7213C430.807 86.6191 431.521 88.4602 431.648 89.5422L430.603 89.8848C430.521 89.1025 430.06 87.2498 428.628 85.3995C425.947 81.9361 423.44 82.8088 422.257 84.0841C420.726 85.7332 420.593 87.8342 422.285 91.7113C424.101 95.846 424.574 98.7297 422.064 101.434C420.186 103.457 416.776 104.129 413.415 99.788C412.111 98.1038 411.02 95.5817 410.836 93.604ZM425.976 115.288L439.711 100.49L434.918 94.2981L435.632 93.5285L445.953 106.86L445.239 107.63L440.464 101.462L426.729 116.26L425.976 115.288ZM448.689 110.394L449.442 111.367L434.993 126.935L434.24 125.962L448.689 110.394ZM456.179 137.669L449.873 144.463C448.924 143.963 446.886 142.635 444.829 139.978C442.956 137.559 441.776 134.826 441.815 131.347C441.86 128.601 443.105 125.519 445.33 123.123C448.738 119.451 454.918 118.101 460.023 124.696C461.566 126.688 462.404 128.787 462.614 129.735L461.665 130.105C461.3 128.715 460.613 127.15 459.272 125.418C455.011 119.914 449.736 120.159 446.042 124.139C442.144 128.339 441.721 134.32 445.706 139.468C447.322 141.555 448.637 142.576 449.59 142.985L454.733 137.444L451.353 133.079L452.047 132.332L456.179 137.669Z" fill="#666666" fill-opacity="0.63"/>
<path d="M332.935 412.53L332.144 413.454C330.84 411.985 329.043 410.924 326.793 410.404C323.051 409.539 320.54 410.956 320.097 413.62C319.67 416.194 320.632 417.892 324.46 419.883C329.349 422.426 330.238 424.568 329.82 427.083C329.319 430.102 326.241 431.818 322.178 430.88C319.84 430.339 318.18 429.371 317.455 428.62L318.153 427.706C318.669 428.255 320.119 429.389 322.399 429.916C326.667 430.903 328.312 428.671 328.597 426.954C328.966 424.735 327.881 423.04 324.224 421.119C320.314 419.078 318.265 417.16 318.87 413.52C319.322 410.798 321.855 408.156 327.204 409.392C329.279 409.872 331.65 411.127 332.935 412.53ZM307.625 405.329L304.318 425.246L311.947 427.009L311.775 428.045L295.348 424.248L295.52 423.213L303.119 424.969L306.427 405.052L307.625 405.329ZM290.993 423.242L289.795 422.965L293.274 402.012L294.473 402.289L290.993 423.242ZM269.037 406.982L270.556 397.837C271.652 397.63 274.153 397.378 277.426 398.134C280.408 398.823 282.974 400.185 284.924 402.879C286.451 405.014 287.144 408.155 286.608 411.381C285.787 416.323 281.273 421.211 273.147 419.333C270.692 418.765 268.778 417.678 268.058 417.081L268.658 416.206C269.763 417.045 271.244 417.817 273.378 418.31C280.159 419.878 284.53 416.401 285.42 411.045C286.358 405.392 283.31 400.539 276.967 399.073C274.395 398.478 272.689 398.514 271.641 398.795L270.402 406.253L275.781 407.495L275.614 408.502L269.037 406.982Z" fill="#666666" fill-opacity="0.63"/>
<path d="M520.882 225.966L522.002 225.672C522.163 227.718 522.928 229.721 524.342 231.548C526.693 234.584 529.397 234.934 531.234 232.955C533.009 231.042 533.236 229.014 531.455 224.973C529.18 219.81 529.712 217.452 531.447 215.583C533.529 213.34 536.831 213.786 539.383 217.083C540.853 218.981 541.567 220.822 541.693 221.904L540.648 222.246C540.567 221.464 540.106 219.612 538.673 217.761C535.992 214.298 533.486 215.17 532.302 216.446C530.772 218.095 530.639 220.196 532.33 224.073C534.146 228.208 534.619 231.091 532.109 233.796C530.232 235.819 526.821 236.491 523.461 232.15C522.157 230.465 521.065 227.943 520.882 225.966ZM536.021 247.649L549.757 232.851L544.963 226.66L545.678 225.89L555.999 239.222L555.284 239.992L550.509 233.824L536.774 248.622L536.021 247.649ZM558.735 242.756L559.488 243.729L545.038 259.296L544.285 258.324L558.735 242.756ZM566.225 270.031L559.919 276.825C558.97 276.325 556.931 274.997 554.874 272.34C553.001 269.92 551.822 267.188 551.861 263.709C551.906 260.963 553.151 257.881 555.375 255.484C558.784 251.812 564.963 250.463 570.068 257.057C571.611 259.05 572.45 261.149 572.66 262.097L571.711 262.467C571.346 261.076 570.658 259.511 569.317 257.78C565.057 252.276 559.781 252.521 556.087 256.501C552.189 260.701 551.767 266.682 555.752 271.83C557.368 273.917 558.682 274.938 559.635 275.347L564.778 269.806L561.399 265.441L562.093 264.693L566.225 270.031Z" fill="#666666" fill-opacity="0.63"/>
<path d="M62.6207 326.455L61.8299 327.379C60.526 325.91 58.7292 324.849 56.4786 324.329C52.7372 323.464 50.2255 324.881 49.7832 327.545C49.3556 330.12 50.3181 331.817 54.1456 333.808C59.0347 336.351 59.9235 338.493 59.5058 341.008C59.0045 344.027 55.9271 345.744 51.8642 344.805C49.5258 344.264 47.8654 343.297 47.1404 342.545L47.8385 341.631C48.3543 342.18 49.8049 343.315 52.0848 343.842C56.3524 344.828 57.9977 342.596 58.2828 340.879C58.6514 338.66 57.5671 336.965 53.91 335.044C49.9997 333.003 47.9508 331.086 48.5553 327.445C49.0074 324.723 51.5403 322.081 56.8893 323.318C58.9646 323.797 61.3361 325.052 62.6207 326.455ZM37.3111 319.254L34.0035 339.171L41.6324 340.934L41.4604 341.97L25.0334 338.174L25.2054 337.138L32.8051 338.894L36.1126 318.977L37.3111 319.254ZM20.6789 337.167L19.4804 336.89L22.96 315.937L24.1585 316.214L20.6789 337.167ZM-1.27732 320.907L0.241315 311.762C1.33807 311.555 3.83836 311.303 7.11207 312.059C10.0935 312.748 12.6597 314.11 14.6101 316.804C16.1373 318.939 16.8297 322.08 16.294 325.306C15.4733 330.248 10.9587 335.136 2.83293 333.258C0.377645 332.69 -1.53598 331.603 -2.25638 331.006L-1.65575 330.131C-0.550718 330.97 0.929644 331.742 3.0634 332.236C9.84465 333.803 14.2159 330.326 15.1054 324.97C16.0442 319.317 12.9955 314.464 6.65267 312.998C4.08047 312.404 2.37481 312.44 1.32669 312.72L0.0881879 320.178L5.46642 321.421L5.29932 322.427L-1.27732 320.907Z" fill="#666666" fill-opacity="0.63"/>
</svg>
