<svg width="332" height="332" viewBox="0 0 332 332" fill="none" xmlns="http://www.w3.org/2000/svg">
<path d="M178.792 23.9272L153.691 32.2309L106.361 65.3725L63.0154 104.569L99.4846 130.255L107.372 100.171L86.1918 180.955L68.0563 236.813C117.68 264.899 202.37 297.907 203.935 284.534C205.5 271.161 223.275 223.428 222.375 163.83M222.375 163.83L221.424 192.617L280.927 185.932L252.732 117.409L214.284 41.2108M222.375 163.83L221.827 120.575" stroke="black" stroke-opacity="0.4"/>
<path d="M178.066 23.8555L163.071 63.6526L187.446 54.7303L211.759 72.8308L213.286 40.8387" stroke="black" stroke-opacity="0.4"/>
<path d="M178.792 23.9273C184.149 24.8925 185.375 23.7224 191.318 26.8974C194.78 28.747 197.877 30.4581 201.415 32.0634C206.983 34.5903 209.943 36.4094 214.375 41.3115" stroke="black" stroke-opacity="0.4" stroke-linecap="round"/>
<path d="M179.996 25.7312C182.406 28.9368 181.856 33.4241 183.869 36.8132C185.384 39.364 187.434 41.5299 188.844 44.2298C189.577 45.6347 189.146 55.8347 191.24 56.7427C195.957 58.7891 210.671 44.319 214.19 41.137" stroke="black" stroke-opacity="0.4" stroke-linecap="round"/>
<path d="M191.067 60.9312L179.651 125.187L170.463 169.209L148.144 232.391L132.791 270.327" stroke="black" stroke-opacity="0.4"/>
<path d="M194.711 68.6224C192.736 70.4086 189.471 70.1359 187.422 67.8705C185.374 65.605 185.43 62.3291 187.405 60.5429C189.381 58.7566 192.646 59.0294 194.694 61.2948C196.743 63.5602 196.687 66.8361 194.711 68.6224Z" stroke="black" stroke-opacity="0.4"/>
<path d="M188.081 106.686C186.106 108.473 182.841 108.2 180.792 105.934C178.744 103.669 178.8 100.393 180.775 98.6068C182.75 96.8206 186.016 97.0934 188.064 99.3588C190.113 101.624 190.056 104.9 188.081 106.686Z" stroke="black" stroke-opacity="0.4"/>
<path d="M182.183 142.631C180.207 144.417 176.942 144.145 174.894 141.879C172.845 139.614 172.901 136.338 174.877 134.552C176.852 132.765 180.117 133.038 182.166 135.304C184.214 137.569 184.158 140.845 182.183 142.631Z" stroke="black" stroke-opacity="0.4"/>
<path d="M170.463 180.924C168.488 182.711 165.223 182.438 163.174 180.172C161.126 177.907 161.182 174.631 163.157 172.845C165.132 171.059 168.397 171.331 170.446 173.597C172.494 175.862 172.438 179.138 170.463 180.924Z" stroke="black" stroke-opacity="0.4"/>
<path d="M156.555 222.654C154.579 224.441 151.314 224.168 149.266 221.902C147.217 219.637 147.273 216.361 149.249 214.575C151.224 212.789 154.489 213.061 156.538 215.327C158.586 217.592 158.53 220.868 156.555 222.654Z" stroke="black" stroke-opacity="0.4"/>
</svg>
