<svg width="152" height="185" viewBox="0 0 152 185" fill="none" xmlns="http://www.w3.org/2000/svg">
<path d="M12.7021 12.2682L5.6985 30.7677L1 74.6188V119.316L29.5428 111.804L18.3759 91.8967L48.3622 145.353L67.5608 184.296C103.059 170.552 156.379 139.44 150.561 131.693C144.743 123.945 129.34 89.3743 99.9465 59.3121M99.9465 59.3121L113.534 74.6188L136.461 37.4338L90.7163 18.2779L36.7266 1M99.9465 59.3121L78.6596 37.4338" stroke="black" stroke-opacity="0.3"/>
<path d="M12.3477 12.6438L25.1136 41.5655L31.4966 23.1608L51.0001 18.6535L36.1065 1.37561" stroke="black" stroke-opacity="0.3"/>
<path d="M12.7019 12.2682C15.5281 9.72462 15.4982 8.42892 19.6577 6.68626C22.0808 5.67111 24.2761 4.79167 26.6135 3.60838C30.2929 1.74574 32.48 1 36.8154 1" stroke="black" stroke-opacity="0.3" stroke-linecap="round"/>
<path d="M14.1094 12.5109C16.7292 12.7884 18.6706 15.4021 21.2052 15.9987C23.1129 16.4478 25.0686 16.396 27.0025 16.9812C28.0088 17.2857 32.7819 22.7627 34.1447 22.041C37.216 20.4144 36.6491 4.64443 36.6491 1.0159" stroke="black" stroke-opacity="0.3" stroke-linecap="round"/>
<path d="M36.1064 24.2876L62.3476 63.7262L79.7235 91.5211L100.645 136.594L112.348 164.764" stroke="black" stroke-opacity="0.3"/>
<path d="M41.2802 26.1656C41.2802 28.1988 39.7309 29.7972 37.8795 29.7972C36.028 29.7972 34.4788 28.1988 34.4788 26.1656C34.4788 24.1324 36.028 22.5339 37.8795 22.5339C39.7309 22.5339 41.2802 24.1324 41.2802 26.1656Z" stroke="black" stroke-opacity="0.3"/>
<path d="M56.8832 49.4531C56.8832 51.4863 55.3339 53.0848 53.4825 53.0848C51.631 53.0848 50.0818 51.4863 50.0818 49.4531C50.0818 47.4199 51.631 45.8214 53.4825 45.8214C55.3339 45.8214 56.8832 47.4199 56.8832 49.4531Z" stroke="black" stroke-opacity="0.3"/>
<path d="M71.7768 71.2384C71.7768 73.2716 70.2275 74.87 68.3761 74.87C66.5246 74.87 64.9753 73.2716 64.9753 71.2384C64.9753 69.2052 66.5246 67.6067 68.3761 67.6067C70.2275 67.6067 71.7768 69.2052 71.7768 71.2384Z" stroke="black" stroke-opacity="0.3"/>
<path d="M85.2519 97.5307C85.2519 99.5639 83.7026 101.162 81.8511 101.162C79.9997 101.162 78.4504 99.5639 78.4504 97.5307C78.4504 95.4975 79.9997 93.899 81.8511 93.899C83.7026 93.899 85.2519 95.4975 85.2519 97.5307Z" stroke="black" stroke-opacity="0.3"/>
<path d="M99.4362 126.828C99.4362 128.861 97.8869 130.46 96.0355 130.46C94.184 130.46 92.6348 128.861 92.6348 126.828C92.6348 124.795 94.184 123.196 96.0355 123.196C97.8869 123.196 99.4362 124.795 99.4362 126.828Z" stroke="black" stroke-opacity="0.3"/>
</svg>
