<svg width="65" height="23" viewBox="0 0 65 23" fill="none" xmlns="http://www.w3.org/2000/svg">
<path d="M0.51 20.68L1.14 19.6C2.67 20.74 4.62 21.37 6.93 21.37C10.77 21.37 13.02 19.42 13.02 16.72C13.02 14.11 11.79 12.67 7.68 11.59C2.43 10.21 1.2 8.32 1.2 5.77C1.2 2.71 3.96 0.339998 8.13 0.339998C10.53 0.339998 12.33 0.91 13.17 1.48L12.63 2.53C12.03 2.11 10.41 1.33 8.07 1.33C3.69 1.33 2.43 3.88 2.43 5.62C2.43 7.87 3.78 9.28 7.71 10.33C11.91 11.44 14.25 12.85 14.25 16.54C14.25 19.3 12.18 22.45 6.69 22.45C4.56 22.45 2.01 21.76 0.51 20.68ZM26.7087 22V1.81H18.8787V0.76H35.7387V1.81H27.9387V22H26.7087ZM40.208 0.76H41.438V22H40.208V0.76ZM64.579 11.68V20.95C63.529 21.4 61.099 22.21 57.739 22.21C54.679 22.21 51.919 21.46 49.549 19.27C47.689 17.53 46.489 14.62 46.489 11.35C46.489 6.34 50.149 0.549999 58.489 0.549999C61.009 0.549999 63.079 1.18 63.889 1.6L63.439 2.59C62.209 2.02 60.619 1.6 58.429 1.6C51.469 1.6 47.719 5.98 47.719 11.41C47.719 17.14 51.529 21.19 58.039 21.19C60.679 21.19 62.359 20.77 63.349 20.26V12.7H57.829V11.68H64.579Z" fill="white"/>
</svg>
